<?xml version="1.0" encoding="UTF-8"?><svg xmlns="http://www.w3.org/2000/svg" xmlns:xlink="http://www.w3.org/1999/xlink" fill-opacity="1" color-rendering="auto" color-interpolation="auto" text-rendering="auto" stroke="black" stroke-linecap="square" width="853" stroke-miterlimit="10" shape-rendering="auto" stroke-opacity="1" fill="black" stroke-dasharray="none" font-weight="normal" stroke-width="1" height="681" font-family="'Dialog'" font-style="normal" stroke-linejoin="miter" font-size="12px" stroke-dashoffset="0" image-rendering="auto">
  <!--Generated by ySVG 2.5-->
  <defs id="genericDefs"/>
  <g>
    <defs id="defs1">
      <linearGradient x1="33.6873" gradientUnits="userSpaceOnUse" x2="227.0395" y1="-188.429" y2="-148.429" id="linearGradient1" spreadMethod="reflect">
        <stop stop-opacity="1" stop-color="rgb(232,238,247)" offset="0%"/>
        <stop stop-opacity="1" stop-color="rgb(183,201,227)" offset="100%"/>
      </linearGradient>
      <linearGradient x1="-47.7551" gradientUnits="userSpaceOnUse" x2="308.4818" y1="-100.3283" y2="-60.3283" id="linearGradient2" spreadMethod="reflect">
        <stop stop-opacity="1" stop-color="rgb(232,238,247)" offset="0%"/>
        <stop stop-opacity="1" stop-color="rgb(183,201,227)" offset="100%"/>
      </linearGradient>
      <linearGradient x1="338.4818" gradientUnits="userSpaceOnUse" x2="418.4818" y1="-30.3283" y2="9.6717" id="linearGradient3" spreadMethod="reflect">
        <stop stop-opacity="1" stop-color="rgb(232,238,247)" offset="0%"/>
        <stop stop-opacity="1" stop-color="rgb(183,201,227)" offset="100%"/>
      </linearGradient>
      <linearGradient x1="448.4818" gradientUnits="userSpaceOnUse" x2="528.4818" y1="-30.3283" y2="9.6717" id="linearGradient4" spreadMethod="reflect">
        <stop stop-opacity="1" stop-color="rgb(232,238,247)" offset="0%"/>
        <stop stop-opacity="1" stop-color="rgb(183,201,227)" offset="100%"/>
      </linearGradient>
      <clipPath clipPathUnits="userSpaceOnUse" id="clipPath1">
        <path d="M0 0 L853 0 L853 681 L0 681 L0 0 Z"/>
      </clipPath>
      <clipPath clipPathUnits="userSpaceOnUse" id="clipPath2">
        <path d="M-113 -238 L589.5037 -238 L589.5037 322.85 L-113 322.85 L-113 -238 Z"/>
      </clipPath>
    </defs>
    <g fill="white" text-rendering="geometricPrecision" shape-rendering="geometricPrecision" transform="scale(1.2142,1.2142) translate(113,238)" stroke="white">
      <rect x="-114" width="704" height="562" y="-239" clip-path="url(#clipPath2)" stroke="none"/>
    </g>
    <g fill="rgb(245,245,245)" text-rendering="geometricPrecision" shape-rendering="geometricPrecision" transform="matrix(1.2142,0,0,1.2142,137.2078,288.9864)" stroke="rgb(245,245,245)">
      <rect x="-62.7551" y="-225.095" clip-path="url(#clipPath2)" width="623.487" rx="4" ry="4" height="271.942" stroke="none"/>
      <rect x="-62.7551" y="-225.095" clip-path="url(#clipPath2)" fill="rgb(235,235,235)" width="623.487" height="21.666" stroke="none"/>
    </g>
    <g font-size="15px" stroke-linecap="butt" transform="matrix(1.2142,0,0,1.2142,137.2078,288.9864)" text-rendering="geometricPrecision" font-family="sans-serif" shape-rendering="geometricPrecision" stroke-miterlimit="1.45">
      <text x="446.0122" xml:space="preserve" y="-208.5931" clip-path="url(#clipPath2)" stroke="none">添加Connection</text>
      <rect x="-62.7551" y="-225.095" clip-path="url(#clipPath2)" fill="none" width="623.487" stroke-dasharray="6,2" rx="4" ry="4" height="271.942"/>
    </g>
    <g fill="url(#linearGradient1)" text-rendering="geometricPrecision" shape-rendering="geometricPrecision" transform="matrix(1.2142,0,0,1.2142,137.2078,288.9864)" stroke="url(#linearGradient1)">
      <rect x="33.6873" y="-188.429" clip-path="url(#clipPath2)" width="193.3522" rx="20" ry="20" height="40" stroke="none"/>
    </g>
    <g text-rendering="geometricPrecision" stroke-miterlimit="1.45" shape-rendering="geometricPrecision" transform="matrix(1.2142,0,0,1.2142,137.2078,288.9864)" stroke-linecap="butt">
      <rect x="33.6873" y="-188.429" clip-path="url(#clipPath2)" fill="none" width="193.3522" rx="20" ry="20" height="40"/>
      <text x="42.6749" xml:space="preserve" y="-163.8938" clip-path="url(#clipPath2)" font-family="sans-serif" stroke="none">用户发送Action添加Connection</text>
    </g>
    <g fill="url(#linearGradient2)" text-rendering="geometricPrecision" shape-rendering="geometricPrecision" transform="matrix(1.2142,0,0,1.2142,137.2078,288.9864)" stroke="url(#linearGradient2)">
      <path d="M-47.7551 -100.3283 L308.4818 -100.3283 L308.4818 -60.3283 L-47.7551 -60.3283 Z" stroke="none" clip-path="url(#clipPath2)"/>
    </g>
    <g text-rendering="geometricPrecision" stroke-miterlimit="1.45" shape-rendering="geometricPrecision" transform="matrix(1.2142,0,0,1.2142,137.2078,288.9864)" stroke-linecap="butt">
      <path fill="none" d="M-47.7551 -100.3283 L308.4818 -100.3283 L308.4818 -60.3283 L-47.7551 -60.3283 Z" clip-path="url(#clipPath2)"/>
      <text x="-34.2177" xml:space="preserve" y="-75.7931" clip-path="url(#clipPath2)" font-family="sans-serif" stroke="none">Dispatcher向Label的Repository中添加新的Connection对象</text>
    </g>
    <g fill="url(#linearGradient3)" text-rendering="geometricPrecision" shape-rendering="geometricPrecision" transform="matrix(1.2142,0,0,1.2142,137.2078,288.9864)" stroke="url(#linearGradient3)">
      <path d="M338.4818 -30.3283 L418.4818 -30.3283 L418.4818 9.6717 L338.4818 9.6717 Z" stroke="none" clip-path="url(#clipPath2)"/>
    </g>
    <g text-rendering="geometricPrecision" stroke-miterlimit="1.45" shape-rendering="geometricPrecision" transform="matrix(1.2142,0,0,1.2142,137.2078,288.9864)" stroke-linecap="butt">
      <path fill="none" d="M338.4818 -30.3283 L418.4818 -30.3283 L418.4818 9.6717 L338.4818 9.6717 Z" clip-path="url(#clipPath2)"/>
      <text x="354.4818" xml:space="preserve" y="-5.7931" clip-path="url(#clipPath2)" font-family="sans-serif" stroke="none">直接添加</text>
    </g>
    <g fill="url(#linearGradient4)" text-rendering="geometricPrecision" shape-rendering="geometricPrecision" transform="matrix(1.2142,0,0,1.2142,137.2078,288.9864)" stroke="url(#linearGradient4)">
      <path d="M448.4818 -30.3283 L528.4818 -30.3283 L528.4818 9.6717 L448.4818 9.6717 Z" stroke="none" clip-path="url(#clipPath2)"/>
    </g>
    <g text-rendering="geometricPrecision" stroke-miterlimit="1.45" shape-rendering="geometricPrecision" transform="matrix(1.2142,0,0,1.2142,137.2078,288.9864)" stroke-linecap="butt">
      <path fill="none" d="M448.4818 -30.3283 L528.4818 -30.3283 L528.4818 9.6717 L448.4818 9.6717 Z" clip-path="url(#clipPath2)"/>
      <text x="476.4818" xml:space="preserve" y="-5.7931" clip-path="url(#clipPath2)" font-family="sans-serif" stroke="none">绘制</text>
    </g>
    <g text-rendering="geometricPrecision" stroke-miterlimit="1.45" shape-rendering="geometricPrecision" transform="matrix(1.2142,0,0,1.2142,137.2078,288.9864)" stroke-linecap="butt">
      <rect fill="none" x="325.4966" width="101.4725" height="132.1753" y="-100.3283" clip-path="url(#clipPath2)"/>
      <text x="361.2739" xml:space="preserve" y="-82.7267" clip-path="url(#clipPath2)" font-family="sans-serif" stroke="none">Store</text>
      <rect fill="none" x="426.9691" width="118.7628" height="132.1753" y="-100.3283" clip-path="url(#clipPath2)"/>
      <text x="472.7274" xml:space="preserve" y="-82.7267" clip-path="url(#clipPath2)" font-family="sans-serif" stroke="none">View</text>
      <path fill="none" d="M130.3634 -148.4257 L130.3634 -108.3119" clip-path="url(#clipPath2)"/>
      <path d="M130.3634 -100.3119 L135.3634 -112.3119 L130.3634 -109.3119 L125.3634 -112.3119 Z" clip-path="url(#clipPath2)" stroke="none"/>
      <path fill="none" d="M201.2673 -60.3246 L330.762 -23.7911" clip-path="url(#clipPath2)"/>
      <path d="M338.4615 -21.619 L328.2699 -29.6894 L329.7996 -24.0627 L325.5547 -20.0651 Z" clip-path="url(#clipPath2)" stroke="none"/>
      <path fill="none" d="M418.4696 -10.3283 L440.4504 -10.3283" clip-path="url(#clipPath2)"/>
      <path d="M448.4504 -10.3283 L436.4504 -15.3283 L439.4504 -10.3283 L436.4504 -5.3283 Z" clip-path="url(#clipPath2)" stroke="none"/>
    </g>
  </g>
</svg>
