<?xml version="1.0" encoding="UTF-8"?><svg xmlns="http://www.w3.org/2000/svg" xmlns:xlink="http://www.w3.org/1999/xlink" fill-opacity="1" color-rendering="auto" color-interpolation="auto" text-rendering="auto" stroke="black" stroke-linecap="square" width="853" stroke-miterlimit="10" shape-rendering="auto" stroke-opacity="1" fill="black" stroke-dasharray="none" font-weight="normal" stroke-width="1" height="681" font-family="'Dialog'" font-style="normal" stroke-linejoin="miter" font-size="12px" stroke-dashoffset="0" image-rendering="auto">
  <!--Generated by ySVG 2.5-->
  <defs id="genericDefs"/>
  <g>
    <defs id="defs1">
      <linearGradient x1="-101.4703" gradientUnits="userSpaceOnUse" x2="54.4194" y1="-148.4007" y2="-109.9818" id="linearGradient1" spreadMethod="reflect">
        <stop stop-opacity="1" stop-color="rgb(232,238,247)" offset="0%"/>
        <stop stop-opacity="1" stop-color="rgb(183,201,227)" offset="100%"/>
      </linearGradient>
      <linearGradient x1="-182.6667" gradientUnits="userSpaceOnUse" x2="135.6158" y1="-79.9818" y2="-41.5628" id="linearGradient2" spreadMethod="reflect">
        <stop stop-opacity="1" stop-color="rgb(232,238,247)" offset="0%"/>
        <stop stop-opacity="1" stop-color="rgb(183,201,227)" offset="100%"/>
      </linearGradient>
      <linearGradient x1="199.7277" gradientUnits="userSpaceOnUse" x2="279.7277" y1="-11.5628" y2="28.4372" id="linearGradient3" spreadMethod="reflect">
        <stop stop-opacity="1" stop-color="rgb(232,238,247)" offset="0%"/>
        <stop stop-opacity="1" stop-color="rgb(183,201,227)" offset="100%"/>
      </linearGradient>
      <linearGradient x1="194.9193" gradientUnits="userSpaceOnUse" x2="284.5361" y1="230.469" y2="268.888" id="linearGradient4" spreadMethod="reflect">
        <stop stop-opacity="1" stop-color="rgb(232,238,247)" offset="0%"/>
        <stop stop-opacity="1" stop-color="rgb(183,201,227)" offset="100%"/>
      </linearGradient>
      <linearGradient x1="272.786" gradientUnits="userSpaceOnUse" x2="404.0755" y1="75.469" y2="115.469" id="linearGradient5" spreadMethod="reflect">
        <stop stop-opacity="1" stop-color="rgb(232,238,247)" offset="0%"/>
        <stop stop-opacity="1" stop-color="rgb(183,201,227)" offset="100%"/>
      </linearGradient>
      <linearGradient x1="272.786" gradientUnits="userSpaceOnUse" x2="404.0755" y1="145.469" y2="185.469" id="linearGradient6" spreadMethod="reflect">
        <stop stop-opacity="1" stop-color="rgb(232,238,247)" offset="0%"/>
        <stop stop-opacity="1" stop-color="rgb(183,201,227)" offset="100%"/>
      </linearGradient>
      <linearGradient x1="489.6797" gradientUnits="userSpaceOnUse" x2="600.6671" y1="75.469" y2="115.469" id="linearGradient7" spreadMethod="reflect">
        <stop stop-opacity="1" stop-color="rgb(232,238,247)" offset="0%"/>
        <stop stop-opacity="1" stop-color="rgb(183,201,227)" offset="100%"/>
      </linearGradient>
      <linearGradient x1="489.6797" gradientUnits="userSpaceOnUse" x2="600.6671" y1="145.469" y2="185.469" id="linearGradient8" spreadMethod="reflect">
        <stop stop-opacity="1" stop-color="rgb(232,238,247)" offset="0%"/>
        <stop stop-opacity="1" stop-color="rgb(183,201,227)" offset="100%"/>
      </linearGradient>
      <linearGradient x1="489.6797" gradientUnits="userSpaceOnUse" x2="600.6671" y1="229.6785" y2="269.6785" id="linearGradient9" spreadMethod="reflect">
        <stop stop-opacity="1" stop-color="rgb(232,238,247)" offset="0%"/>
        <stop stop-opacity="1" stop-color="rgb(183,201,227)" offset="100%"/>
      </linearGradient>
      <clipPath clipPathUnits="userSpaceOnUse" id="clipPath1">
        <path d="M0 0 L853 0 L853 681 L0 681 L0 0 Z"/>
      </clipPath>
      <clipPath clipPathUnits="userSpaceOnUse" id="clipPath2">
        <path d="M-256 -208 L674.1819 -208 L674.1819 534.6188 L-256 534.6188 L-256 -208 Z"/>
      </clipPath>
    </defs>
    <g fill="white" text-rendering="geometricPrecision" shape-rendering="geometricPrecision" transform="scale(0.917,0.917) translate(256,208)" stroke="white">
      <rect x="-256" width="931" height="743" y="-208" clip-path="url(#clipPath2)" stroke="none"/>
    </g>
    <g fill="rgb(245,245,245)" text-rendering="geometricPrecision" shape-rendering="geometricPrecision" transform="matrix(0.917,0,0,0.917,234.7584,190.7412)" stroke="rgb(245,245,245)">
      <rect x="-197.6667" y="-265.0668" clip-path="url(#clipPath2)" width="50" rx="4" ry="4" height="50" stroke="none"/>
      <rect x="-204.5458" y="-265.0668" clip-path="url(#clipPath2)" fill="rgb(235,235,235)" width="63.7583" height="21.666" stroke="none"/>
    </g>
    <g font-size="15px" stroke-linecap="butt" transform="matrix(0.917,0,0,0.917,234.7584,190.7412)" text-rendering="geometricPrecision" font-family="sans-serif" shape-rendering="geometricPrecision" stroke-miterlimit="1.45">
      <text x="-202.5458" xml:space="preserve" y="-248.5648" clip-path="url(#clipPath2)" stroke="none">Folder 5</text>
      <rect x="-197.6667" y="-265.0668" clip-path="url(#clipPath2)" fill="none" width="50" stroke-dasharray="6,2" rx="4" ry="4" height="50"/>
    </g>
    <g fill="rgb(245,245,245)" text-rendering="geometricPrecision" shape-rendering="geometricPrecision" transform="matrix(0.917,0,0,0.917,234.7584,190.7412)" stroke="rgb(245,245,245)">
      <rect x="-197.6667" y="-185.0668" clip-path="url(#clipPath2)" width="823.2214" rx="4" ry="4" height="488.0486" stroke="none"/>
      <rect x="-197.6667" y="-185.0668" clip-path="url(#clipPath2)" fill="rgb(235,235,235)" width="823.2214" height="21.666" stroke="none"/>
    </g>
    <g font-size="15px" stroke-linecap="butt" transform="matrix(0.917,0,0,0.917,234.7584,190.7412)" text-rendering="geometricPrecision" font-family="sans-serif" shape-rendering="geometricPrecision" stroke-miterlimit="1.45">
      <text x="555.1392" xml:space="preserve" y="-168.5648" clip-path="url(#clipPath2)" stroke="none">添加Label</text>
      <rect x="-197.6667" y="-185.0668" clip-path="url(#clipPath2)" fill="none" width="823.2214" stroke-dasharray="6,2" rx="4" ry="4" height="488.0486"/>
    </g>
    <g fill="url(#linearGradient1)" text-rendering="geometricPrecision" shape-rendering="geometricPrecision" transform="matrix(0.917,0,0,0.917,234.7584,190.7412)" stroke="url(#linearGradient1)">
      <rect x="-101.4703" y="-148.4007" clip-path="url(#clipPath2)" width="155.8897" rx="19.2095" ry="19.2095" height="38.419" stroke="none"/>
    </g>
    <g text-rendering="geometricPrecision" stroke-miterlimit="1.45" shape-rendering="geometricPrecision" transform="matrix(0.917,0,0,0.917,234.7584,190.7412)" stroke-linecap="butt">
      <rect x="-101.4703" y="-148.4007" clip-path="url(#clipPath2)" fill="none" width="155.8897" rx="19.2095" ry="19.2095" height="38.419"/>
      <text x="-93.4922" xml:space="preserve" y="-124.6561" clip-path="url(#clipPath2)" font-family="sans-serif" stroke="none">用户发送Action添加Label</text>
    </g>
    <g fill="url(#linearGradient2)" text-rendering="geometricPrecision" shape-rendering="geometricPrecision" transform="matrix(0.917,0,0,0.917,234.7584,190.7412)" stroke="url(#linearGradient2)">
      <path d="M-182.6667 -79.9818 L135.6158 -79.9818 L135.6158 -41.5628 L-182.6667 -41.5628 Z" stroke="none" clip-path="url(#clipPath2)"/>
    </g>
    <g text-rendering="geometricPrecision" stroke-miterlimit="1.45" shape-rendering="geometricPrecision" transform="matrix(0.917,0,0,0.917,234.7584,190.7412)" stroke-linecap="butt">
      <path fill="none" d="M-182.6667 -79.9818 L135.6158 -79.9818 L135.6158 -41.5628 L-182.6667 -41.5628 Z" clip-path="url(#clipPath2)"/>
      <text x="-170.3848" xml:space="preserve" y="-56.2371" clip-path="url(#clipPath2)" font-family="sans-serif" stroke="none">Dispatcher向Label的Repository中添加新的Label对象</text>
    </g>
    <g fill="url(#linearGradient3)" text-rendering="geometricPrecision" shape-rendering="geometricPrecision" transform="matrix(0.917,0,0,0.917,234.7584,190.7412)" stroke="url(#linearGradient3)">
      <path d="M239.7277 -11.5628 L279.7277 8.4372 L239.7277 28.4372 L199.7277 8.4372 Z" stroke="none" clip-path="url(#clipPath2)"/>
    </g>
    <g text-rendering="geometricPrecision" stroke-miterlimit="1.45" shape-rendering="geometricPrecision" transform="matrix(0.917,0,0,0.917,234.7584,190.7412)" stroke-linecap="butt">
      <path fill="none" d="M239.7277 -11.5628 L279.7277 8.4372 L239.7277 28.4372 L199.7277 8.4372 Z" clip-path="url(#clipPath2)"/>
      <text x="227.7277" xml:space="preserve" y="12.9723" clip-path="url(#clipPath2)" font-family="sans-serif" stroke="none">跨行</text>
    </g>
    <g fill="url(#linearGradient4)" text-rendering="geometricPrecision" shape-rendering="geometricPrecision" transform="matrix(0.917,0,0,0.917,234.7584,190.7412)" stroke="url(#linearGradient4)">
      <path d="M194.9193 230.469 L284.5361 230.469 L284.5361 268.888 L194.9193 268.888 Z" stroke="none" clip-path="url(#clipPath2)"/>
    </g>
    <g text-rendering="geometricPrecision" stroke-miterlimit="1.45" shape-rendering="geometricPrecision" transform="matrix(0.917,0,0,0.917,234.7584,190.7412)" stroke-linecap="butt">
      <path fill="none" d="M194.9193 230.469 L284.5361 230.469 L284.5361 268.888 L194.9193 268.888 Z" clip-path="url(#clipPath2)"/>
      <text x="197.7628" xml:space="preserve" y="254.2137" clip-path="url(#clipPath2)" font-family="sans-serif" stroke="none">Label加入Repo</text>
    </g>
    <g text-rendering="geometricPrecision" stroke-miterlimit="1.45" shape-rendering="geometricPrecision" transform="matrix(0.917,0,0,0.917,234.7584,190.7412)" stroke-linecap="butt">
      <path fill="none" d="M-23.5254 -109.9818 L-23.5254 -87.9467" clip-path="url(#clipPath2)"/>
      <path d="M-23.5254 -79.9467 L-18.5254 -91.9467 L-23.5254 -88.9467 L-28.5254 -91.9467 Z" clip-path="url(#clipPath2)" stroke="none"/>
      <path fill="none" d="M49.5183 -41.569 L205.7532 -0.4947" clip-path="url(#clipPath2)"/>
      <path d="M213.4903 1.5394 L203.156 -6.3475 L204.7861 -0.749 L200.6134 3.3239 Z" clip-path="url(#clipPath2)" stroke="none"/>
      <path fill="none" d="M239.7277 28.4327 L239.7277 222.4762" clip-path="url(#clipPath2)"/>
      <path d="M239.7277 230.4762 L244.7277 218.4762 L239.7277 221.4762 L234.7277 218.4762 Z" clip-path="url(#clipPath2)" stroke="none"/>
      <rect x="233.2951" y="120.3867" clip-path="url(#clipPath2)" fill="white" width="12.8652" height="18.1328" stroke="none"/>
      <text x="235.2951" xml:space="preserve" y="133.9883" clip-path="url(#clipPath2)" font-family="sans-serif" stroke="none">N</text>
    </g>
    <g fill="rgb(225,225,225)" text-rendering="geometricPrecision" shape-rendering="geometricPrecision" transform="matrix(0.917,0,0,0.917,234.7584,190.7412)" stroke="rgb(225,225,225)">
      <rect x="257.786" y="38.803" clip-path="url(#clipPath2)" width="161.2895" rx="4" ry="4" height="161.666" stroke="none"/>
      <rect x="257.786" y="38.803" clip-path="url(#clipPath2)" fill="rgb(235,235,235)" width="161.2895" height="21.666" stroke="none"/>
    </g>
    <g font-size="15px" stroke-linecap="butt" transform="matrix(0.917,0,0,0.917,234.7584,190.7412)" text-rendering="geometricPrecision" font-family="sans-serif" shape-rendering="geometricPrecision" stroke-miterlimit="1.45">
      <text x="357.0755" xml:space="preserve" y="55.305" clip-path="url(#clipPath2)" stroke="none">合并Line</text>
      <rect x="257.786" y="38.803" clip-path="url(#clipPath2)" fill="none" width="161.2895" stroke-dasharray="6,2" rx="4" ry="4" height="161.666"/>
    </g>
    <g fill="url(#linearGradient5)" text-rendering="geometricPrecision" shape-rendering="geometricPrecision" transform="matrix(0.917,0,0,0.917,234.7584,190.7412)" stroke="url(#linearGradient5)">
      <path d="M272.786 75.469 L404.0755 75.469 L404.0755 115.469 L272.786 115.469 Z" stroke="none" clip-path="url(#clipPath2)"/>
    </g>
    <g text-rendering="geometricPrecision" stroke-miterlimit="1.45" shape-rendering="geometricPrecision" transform="matrix(0.917,0,0,0.917,234.7584,190.7412)" stroke-linecap="butt">
      <path fill="none" d="M272.786 75.469 L404.0755 75.469 L404.0755 115.469 L272.786 115.469 Z" clip-path="url(#clipPath2)"/>
      <text x="279.9484" xml:space="preserve" y="100.0042" clip-path="url(#clipPath2)" font-family="sans-serif" stroke="none">删除"被合并掉"的Line</text>
    </g>
    <g fill="url(#linearGradient6)" text-rendering="geometricPrecision" shape-rendering="geometricPrecision" transform="matrix(0.917,0,0,0.917,234.7584,190.7412)" stroke="url(#linearGradient6)">
      <path d="M272.786 145.469 L404.0755 145.469 L404.0755 185.469 L272.786 185.469 Z" stroke="none" clip-path="url(#clipPath2)"/>
    </g>
    <g text-rendering="geometricPrecision" stroke-miterlimit="1.45" shape-rendering="geometricPrecision" transform="matrix(0.917,0,0,0.917,234.7584,190.7412)" stroke-linecap="butt">
      <path fill="none" d="M272.786 145.469 L404.0755 145.469 L404.0755 185.469 L272.786 185.469 Z" clip-path="url(#clipPath2)"/>
      <text x="285.9484" xml:space="preserve" y="170.0042" clip-path="url(#clipPath2)" font-family="sans-serif" stroke="none">更新"合并入"的Line</text>
    </g>
    <g fill="url(#linearGradient7)" text-rendering="geometricPrecision" shape-rendering="geometricPrecision" transform="matrix(0.917,0,0,0.917,234.7584,190.7412)" stroke="url(#linearGradient7)">
      <path d="M489.6797 75.469 L600.6671 75.469 L600.6671 115.469 L489.6797 115.469 Z" stroke="none" clip-path="url(#clipPath2)"/>
    </g>
    <g text-rendering="geometricPrecision" stroke-miterlimit="1.45" shape-rendering="geometricPrecision" transform="matrix(0.917,0,0,0.917,234.7584,190.7412)" stroke-linecap="butt">
      <path fill="none" d="M489.6797 75.469 L600.6671 75.469 L600.6671 115.469 L489.6797 115.469 Z" clip-path="url(#clipPath2)"/>
      <text x="495.5504" xml:space="preserve" y="100.0042" clip-path="url(#clipPath2)" font-family="sans-serif" stroke="none">删除对应LineView</text>
    </g>
    <g fill="url(#linearGradient8)" text-rendering="geometricPrecision" shape-rendering="geometricPrecision" transform="matrix(0.917,0,0,0.917,234.7584,190.7412)" stroke="url(#linearGradient8)">
      <path d="M489.6797 145.469 L600.6671 145.469 L600.6671 185.469 L489.6797 185.469 Z" stroke="none" clip-path="url(#clipPath2)"/>
    </g>
    <g text-rendering="geometricPrecision" stroke-miterlimit="1.45" shape-rendering="geometricPrecision" transform="matrix(0.917,0,0,0.917,234.7584,190.7412)" stroke-linecap="butt">
      <path fill="none" d="M489.6797 145.469 L600.6671 145.469 L600.6671 185.469 L489.6797 185.469 Z" clip-path="url(#clipPath2)"/>
      <text x="495.5504" xml:space="preserve" y="170.0042" clip-path="url(#clipPath2)" font-family="sans-serif" stroke="none">重绘对应LineView</text>
    </g>
    <g fill="url(#linearGradient9)" text-rendering="geometricPrecision" shape-rendering="geometricPrecision" transform="matrix(0.917,0,0,0.917,234.7584,190.7412)" stroke="url(#linearGradient9)">
      <path d="M489.6797 229.6785 L600.6671 229.6785 L600.6671 269.6785 L489.6797 269.6785 Z" stroke="none" clip-path="url(#clipPath2)"/>
    </g>
    <g text-rendering="geometricPrecision" stroke-miterlimit="1.45" shape-rendering="geometricPrecision" transform="matrix(0.917,0,0,0.917,234.7584,190.7412)" stroke-linecap="butt">
      <path fill="none" d="M489.6797 229.6785 L600.6671 229.6785 L600.6671 269.6785 L489.6797 269.6785 Z" clip-path="url(#clipPath2)"/>
      <text x="504.1842" xml:space="preserve" y="254.2137" clip-path="url(#clipPath2)" font-family="sans-serif" stroke="none">绘制LabelView</text>
    </g>
    <g text-rendering="geometricPrecision" stroke-miterlimit="1.45" shape-rendering="geometricPrecision" transform="matrix(0.917,0,0,0.917,234.7584,190.7412)" stroke-linecap="butt">
      <rect fill="none" x="188.9883" width="241.2363" height="333.8963" y="-45.9145" clip-path="url(#clipPath2)"/>
      <text x="294.6475" xml:space="preserve" y="-28.3129" clip-path="url(#clipPath2)" font-family="sans-serif" stroke="none">Store</text>
      <rect fill="none" x="430.2247" width="180.3301" height="333.8963" y="-45.9145" clip-path="url(#clipPath2)"/>
      <text x="506.7667" xml:space="preserve" y="-28.3129" clip-path="url(#clipPath2)" font-family="sans-serif" stroke="none">View</text>
      <path fill="none" d="M254.2103 21.2072 L309.7508 70.1803" clip-path="url(#clipPath2)"/>
      <path d="M315.7513 75.4713 L310.0574 63.7846 L309.0007 69.519 L303.4437 71.2852 Z" clip-path="url(#clipPath2)" stroke="none"/>
      <rect x="283.341" y="42.8867" clip-path="url(#clipPath2)" fill="white" width="11.4766" height="18.1328" stroke="none"/>
      <text x="285.3409" xml:space="preserve" y="56.4883" clip-path="url(#clipPath2)" font-family="sans-serif" stroke="none">Y</text>
      <path fill="none" d="M338.4308 115.4642 L338.4308 137.4964" clip-path="url(#clipPath2)"/>
      <path d="M338.4308 145.4964 L343.4308 133.4964 L338.4308 136.4964 L333.4308 133.4964 Z" clip-path="url(#clipPath2)" stroke="none"/>
      <path fill="none" d="M314.984 185.4729 L268.3391 225.2684" clip-path="url(#clipPath2)"/>
      <path d="M262.2531 230.4607 L274.6274 226.476 L269.0999 224.6193 L268.1369 218.8685 Z" clip-path="url(#clipPath2)" stroke="none"/>
      <path fill="none" d="M404.0726 95.469 L481.677 95.469" clip-path="url(#clipPath2)"/>
      <path d="M489.677 95.469 L477.677 90.469 L480.677 95.469 L477.677 100.469 Z" clip-path="url(#clipPath2)" stroke="none"/>
      <path fill="none" d="M404.0726 165.469 L481.677 165.469" clip-path="url(#clipPath2)"/>
      <path d="M489.677 165.469 L477.677 160.469 L480.677 165.469 L477.677 170.469 Z" clip-path="url(#clipPath2)" stroke="none"/>
      <path fill="none" d="M284.508 249.6785 L481.6484 249.6785" clip-path="url(#clipPath2)"/>
      <path d="M489.6484 249.6785 L477.6484 244.6785 L480.6484 249.6785 L477.6484 254.6785 Z" clip-path="url(#clipPath2)" stroke="none"/>
    </g>
  </g>
</svg>
