<?xml version="1.0" encoding="UTF-8"?><svg xmlns="http://www.w3.org/2000/svg" xmlns:xlink="http://www.w3.org/1999/xlink" fill-opacity="1" color-rendering="auto" color-interpolation="auto" text-rendering="auto" stroke="black" stroke-linecap="square" width="853" stroke-miterlimit="10" shape-rendering="auto" stroke-opacity="1" fill="black" stroke-dasharray="none" font-weight="normal" stroke-width="1" height="681" font-family="'Dialog'" font-style="normal" stroke-linejoin="miter" font-size="12px" stroke-dashoffset="0" image-rendering="auto">
  <!--Generated by ySVG 2.5-->
  <defs id="genericDefs"/>
  <g>
    <defs id="defs1">
      <linearGradient x1="186.2451" gradientUnits="userSpaceOnUse" x2="381.2913" y1="5.5555" y2="43.9745" id="linearGradient1" spreadMethod="reflect">
        <stop stop-opacity="1" stop-color="rgb(232,238,247)" offset="0%"/>
        <stop stop-opacity="1" stop-color="rgb(183,201,227)" offset="100%"/>
      </linearGradient>
      <linearGradient x1="107.7184" gradientUnits="userSpaceOnUse" x2="459.8179" y1="73.9745" y2="112.3934" id="linearGradient2" spreadMethod="reflect">
        <stop stop-opacity="1" stop-color="rgb(232,238,247)" offset="0%"/>
        <stop stop-opacity="1" stop-color="rgb(183,201,227)" offset="100%"/>
      </linearGradient>
      <linearGradient x1="465.4973" gradientUnits="userSpaceOnUse" x2="560.3215" y1="142.3934" y2="182.3934" id="linearGradient3" spreadMethod="reflect">
        <stop stop-opacity="1" stop-color="rgb(232,238,247)" offset="0%"/>
        <stop stop-opacity="1" stop-color="rgb(183,201,227)" offset="100%"/>
      </linearGradient>
      <linearGradient x1="585.0436" gradientUnits="userSpaceOnUse" x2="712.8106" y1="142.3934" y2="182.3934" id="linearGradient4" spreadMethod="reflect">
        <stop stop-opacity="1" stop-color="rgb(232,238,247)" offset="0%"/>
        <stop stop-opacity="1" stop-color="rgb(183,201,227)" offset="100%"/>
      </linearGradient>
      <clipPath clipPathUnits="userSpaceOnUse" id="clipPath1">
        <path d="M0 0 L853 0 L853 681 L0 681 L0 0 Z"/>
      </clipPath>
      <clipPath clipPathUnits="userSpaceOnUse" id="clipPath2">
        <path d="M68 -164 L742.3497 -164 L742.3497 374.373 L68 374.373 L68 -164 Z"/>
      </clipPath>
    </defs>
    <g fill="white" text-rendering="geometricPrecision" shape-rendering="geometricPrecision" transform="scale(1.2649,1.2649) translate(-68,164)" stroke="white">
      <rect x="68" width="675" height="539" y="-164" clip-path="url(#clipPath2)" stroke="none"/>
    </g>
    <g fill="rgb(245,245,245)" text-rendering="geometricPrecision" shape-rendering="geometricPrecision" transform="matrix(1.2649,0,0,1.2649,-86.0147,207.4473)" stroke="rgb(245,245,245)">
      <rect x="92.7184" y="-31.1105" clip-path="url(#clipPath2)" width="635.0922" rx="4" ry="4" height="228.5039" stroke="none"/>
      <rect x="92.7184" y="-31.1105" clip-path="url(#clipPath2)" fill="rgb(235,235,235)" width="635.0922" height="21.666" stroke="none"/>
    </g>
    <g font-size="15px" stroke-linecap="butt" transform="matrix(1.2649,0,0,1.2649,-86.0147,207.4473)" text-rendering="geometricPrecision" font-family="sans-serif" shape-rendering="geometricPrecision" stroke-miterlimit="1.45">
      <text x="613.0909" xml:space="preserve" y="-14.6086" clip-path="url(#clipPath2)" stroke="none">移除Connection</text>
      <rect x="92.7184" y="-31.1105" clip-path="url(#clipPath2)" fill="none" width="635.0922" stroke-dasharray="6,2" rx="4" ry="4" height="228.5039"/>
    </g>
    <g fill="url(#linearGradient1)" text-rendering="geometricPrecision" shape-rendering="geometricPrecision" transform="matrix(1.2649,0,0,1.2649,-86.0147,207.4473)" stroke="url(#linearGradient1)">
      <rect x="186.2451" y="5.5555" clip-path="url(#clipPath2)" width="195.0462" rx="19.2095" ry="19.2095" height="38.419" stroke="none"/>
    </g>
    <g text-rendering="geometricPrecision" stroke-miterlimit="1.45" shape-rendering="geometricPrecision" transform="matrix(1.2649,0,0,1.2649,-86.0147,207.4473)" stroke-linecap="butt">
      <rect x="186.2451" y="5.5555" clip-path="url(#clipPath2)" fill="none" width="195.0462" rx="19.2095" ry="19.2095" height="38.419"/>
      <text x="196.0797" xml:space="preserve" y="29.3001" clip-path="url(#clipPath2)" font-family="sans-serif" stroke="none">用户发送Action移除Connection</text>
    </g>
    <g fill="url(#linearGradient2)" text-rendering="geometricPrecision" shape-rendering="geometricPrecision" transform="matrix(1.2649,0,0,1.2649,-86.0147,207.4473)" stroke="url(#linearGradient2)">
      <path d="M107.7184 73.9745 L459.8179 73.9745 L459.8179 112.3934 L107.7184 112.3934 Z" stroke="none" clip-path="url(#clipPath2)"/>
    </g>
    <g text-rendering="geometricPrecision" stroke-miterlimit="1.45" shape-rendering="geometricPrecision" transform="matrix(1.2649,0,0,1.2649,-86.0147,207.4473)" stroke-linecap="butt">
      <path fill="none" d="M107.7184 73.9745 L459.8179 73.9745 L459.8179 112.3934 L107.7184 112.3934 Z" clip-path="url(#clipPath2)"/>
      <text x="113.4654" xml:space="preserve" y="97.7191" clip-path="url(#clipPath2)" font-family="sans-serif" stroke="none">Dispatcher从Connection的Repository中移除Connection对象</text>
    </g>
    <g fill="url(#linearGradient3)" text-rendering="geometricPrecision" shape-rendering="geometricPrecision" transform="matrix(1.2649,0,0,1.2649,-86.0147,207.4473)" stroke="url(#linearGradient3)">
      <path d="M465.4973 142.3934 L560.3215 142.3934 L560.3215 182.3934 L465.4973 182.3934 Z" stroke="none" clip-path="url(#clipPath2)"/>
    </g>
    <g text-rendering="geometricPrecision" stroke-miterlimit="1.45" shape-rendering="geometricPrecision" transform="matrix(1.2649,0,0,1.2649,-86.0147,207.4473)" stroke-linecap="butt">
      <path fill="none" d="M465.4973 142.3934 L560.3215 142.3934 L560.3215 182.3934 L465.4973 182.3934 Z" clip-path="url(#clipPath2)"/>
      <text x="467.8215" xml:space="preserve" y="166.9286" clip-path="url(#clipPath2)" font-family="sans-serif" stroke="none">移除Connection</text>
    </g>
    <g fill="url(#linearGradient4)" text-rendering="geometricPrecision" shape-rendering="geometricPrecision" transform="matrix(1.2649,0,0,1.2649,-86.0147,207.4473)" stroke="url(#linearGradient4)">
      <path d="M585.0436 142.3934 L712.8106 142.3934 L712.8106 182.3934 L585.0436 182.3934 Z" stroke="none" clip-path="url(#clipPath2)"/>
    </g>
    <g text-rendering="geometricPrecision" stroke-miterlimit="1.45" shape-rendering="geometricPrecision" transform="matrix(1.2649,0,0,1.2649,-86.0147,207.4473)" stroke-linecap="butt">
      <path fill="none" d="M585.0436 142.3934 L712.8106 142.3934 L712.8106 182.3934 L585.0436 182.3934 Z" clip-path="url(#clipPath2)"/>
      <text x="590.2162" xml:space="preserve" y="166.9286" clip-path="url(#clipPath2)" font-family="sans-serif" stroke="none">移除ConnectionView</text>
    </g>
    <g text-rendering="geometricPrecision" stroke-miterlimit="1.45" shape-rendering="geometricPrecision" transform="matrix(1.2649,0,0,1.2649,-86.0147,207.4473)" stroke-linecap="butt">
      <path fill="none" d="M283.7682 43.9744 L283.7682 66.0095" clip-path="url(#clipPath2)"/>
      <path d="M283.7682 74.0095 L288.7682 62.0095 L283.7682 65.0095 L278.7682 62.0095 Z" clip-path="url(#clipPath2)" stroke="none"/>
      <path fill="none" d="M347.347 112.3872 L457.8379 145.7597" clip-path="url(#clipPath2)"/>
      <path d="M465.4962 148.0728 L455.4544 139.8167 L456.8806 145.4706 L452.563 149.3896 Z" clip-path="url(#clipPath2)" stroke="none"/>
      <path fill="none" d="M560.2964 162.3934 L577.0074 162.3934" clip-path="url(#clipPath2)"/>
      <path d="M585.0074 162.3934 L573.0074 157.3934 L576.0074 162.3934 L573.0074 167.3934 Z" clip-path="url(#clipPath2)" stroke="none"/>
    </g>
  </g>
</svg>
