<?xml version="1.0" encoding="UTF-8"?><svg xmlns="http://www.w3.org/2000/svg" xmlns:xlink="http://www.w3.org/1999/xlink" fill-opacity="1" color-rendering="auto" color-interpolation="auto" text-rendering="auto" stroke="black" stroke-linecap="square" width="853" stroke-miterlimit="10" shape-rendering="auto" stroke-opacity="1" fill="black" stroke-dasharray="none" font-weight="normal" stroke-width="1" height="681" font-family="'Dialog'" font-style="normal" stroke-linejoin="miter" font-size="12px" stroke-dashoffset="0" image-rendering="auto">
  <!--Generated by ySVG 2.5-->
  <defs id="genericDefs"/>
  <g>
    <defs id="defs1">
      <linearGradient x1="63.5289" gradientUnits="userSpaceOnUse" x2="219.4186" y1="-148.4007" y2="-109.9818" id="linearGradient1" spreadMethod="reflect">
        <stop stop-opacity="1" stop-color="rgb(232,238,247)" offset="0%"/>
        <stop stop-opacity="1" stop-color="rgb(183,201,227)" offset="100%"/>
      </linearGradient>
      <linearGradient x1="-17.6675" gradientUnits="userSpaceOnUse" x2="300.615" y1="-79.9818" y2="-41.5628" id="linearGradient2" spreadMethod="reflect">
        <stop stop-opacity="1" stop-color="rgb(232,238,247)" offset="0%"/>
        <stop stop-opacity="1" stop-color="rgb(183,201,227)" offset="100%"/>
      </linearGradient>
      <linearGradient x1="330.615" gradientUnits="userSpaceOnUse" x2="410.615" y1="-11.5628" y2="28.4372" id="linearGradient3" spreadMethod="reflect">
        <stop stop-opacity="1" stop-color="rgb(232,238,247)" offset="0%"/>
        <stop stop-opacity="1" stop-color="rgb(183,201,227)" offset="100%"/>
      </linearGradient>
      <linearGradient x1="278.3184" gradientUnits="userSpaceOnUse" x2="462.9116" y1="58.4372" y2="96.8562" id="linearGradient4" spreadMethod="reflect">
        <stop stop-opacity="1" stop-color="rgb(232,238,247)" offset="0%"/>
        <stop stop-opacity="1" stop-color="rgb(183,201,227)" offset="100%"/>
      </linearGradient>
      <linearGradient x1="523.9703" gradientUnits="userSpaceOnUse" x2="618.7945" y1="-11.5628" y2="28.4372" id="linearGradient5" spreadMethod="reflect">
        <stop stop-opacity="1" stop-color="rgb(232,238,247)" offset="0%"/>
        <stop stop-opacity="1" stop-color="rgb(183,201,227)" offset="100%"/>
      </linearGradient>
      <linearGradient x1="507.4989" gradientUnits="userSpaceOnUse" x2="635.2659" y1="57.6467" y2="96.8562" id="linearGradient6" spreadMethod="reflect">
        <stop stop-opacity="1" stop-color="rgb(232,238,247)" offset="0%"/>
        <stop stop-opacity="1" stop-color="rgb(183,201,227)" offset="100%"/>
      </linearGradient>
      <clipPath clipPathUnits="userSpaceOnUse" id="clipPath1">
        <path d="M0 0 L853 0 L853 681 L0 681 L0 0 Z"/>
      </clipPath>
      <clipPath clipPathUnits="userSpaceOnUse" id="clipPath2">
        <path d="M-53 -227 L706.1022 -227 L706.1022 379.0359 L-53 379.0359 L-53 -227 Z"/>
      </clipPath>
    </defs>
    <g fill="white" text-rendering="geometricPrecision" shape-rendering="geometricPrecision" transform="scale(1.1237,1.1237) translate(53,227)" stroke="white">
      <rect x="-53" width="760" height="607" y="-227" clip-path="url(#clipPath2)" stroke="none"/>
    </g>
    <g fill="rgb(245,245,245)" text-rendering="geometricPrecision" shape-rendering="geometricPrecision" transform="matrix(1.1237,0,0,1.1237,59.5559,255.079)" stroke="rgb(245,245,245)">
      <rect x="-117.6667" y="-185.0668" clip-path="url(#clipPath2)" width="50" rx="4" ry="4" height="50" stroke="none"/>
      <rect x="-124.5458" y="-185.0668" clip-path="url(#clipPath2)" fill="rgb(235,235,235)" width="63.7583" height="21.666" stroke="none"/>
    </g>
    <g font-size="15px" stroke-linecap="butt" transform="matrix(1.1237,0,0,1.1237,59.5559,255.079)" text-rendering="geometricPrecision" font-family="sans-serif" shape-rendering="geometricPrecision" stroke-miterlimit="1.45">
      <text x="-122.5458" xml:space="preserve" y="-168.5648" clip-path="url(#clipPath2)" stroke="none">Folder 6</text>
      <rect x="-117.6667" y="-185.0668" clip-path="url(#clipPath2)" fill="none" width="50" stroke-dasharray="6,2" rx="4" ry="4" height="50"/>
    </g>
    <g fill="rgb(245,245,245)" text-rendering="geometricPrecision" shape-rendering="geometricPrecision" transform="matrix(1.1237,0,0,1.1237,59.5559,255.079)" stroke="rgb(245,245,245)">
      <rect x="-32.6675" y="-185.0668" clip-path="url(#clipPath2)" width="682.9334" rx="4" ry="4" height="296.9229" stroke="none"/>
      <rect x="-32.6675" y="-185.0668" clip-path="url(#clipPath2)" fill="rgb(235,235,235)" width="682.9334" height="21.666" stroke="none"/>
    </g>
    <g font-size="15px" stroke-linecap="butt" transform="matrix(1.1237,0,0,1.1237,59.5559,255.079)" text-rendering="geometricPrecision" font-family="sans-serif" shape-rendering="geometricPrecision" stroke-miterlimit="1.45">
      <text x="579.8503" xml:space="preserve" y="-168.5648" clip-path="url(#clipPath2)" stroke="none">移除Label</text>
      <rect x="-32.6675" y="-185.0668" clip-path="url(#clipPath2)" fill="none" width="682.9334" stroke-dasharray="6,2" rx="4" ry="4" height="296.9229"/>
    </g>
    <g fill="url(#linearGradient1)" text-rendering="geometricPrecision" shape-rendering="geometricPrecision" transform="matrix(1.1237,0,0,1.1237,59.5559,255.079)" stroke="url(#linearGradient1)">
      <rect x="63.5289" y="-148.4007" clip-path="url(#clipPath2)" width="155.8897" rx="19.2095" ry="19.2095" height="38.419" stroke="none"/>
    </g>
    <g text-rendering="geometricPrecision" stroke-miterlimit="1.45" shape-rendering="geometricPrecision" transform="matrix(1.1237,0,0,1.1237,59.5559,255.079)" stroke-linecap="butt">
      <rect x="63.5289" y="-148.4007" clip-path="url(#clipPath2)" fill="none" width="155.8897" rx="19.2095" ry="19.2095" height="38.419"/>
      <text x="71.5069" xml:space="preserve" y="-124.6561" clip-path="url(#clipPath2)" font-family="sans-serif" stroke="none">用户发送Action移除Label</text>
    </g>
    <g fill="url(#linearGradient2)" text-rendering="geometricPrecision" shape-rendering="geometricPrecision" transform="matrix(1.1237,0,0,1.1237,59.5559,255.079)" stroke="url(#linearGradient2)">
      <path d="M-17.6675 -79.9818 L300.615 -79.9818 L300.615 -41.5628 L-17.6675 -41.5628 Z" stroke="none" clip-path="url(#clipPath2)"/>
    </g>
    <g text-rendering="geometricPrecision" stroke-miterlimit="1.45" shape-rendering="geometricPrecision" transform="matrix(1.1237,0,0,1.1237,59.5559,255.079)" stroke-linecap="butt">
      <path fill="none" d="M-17.6675 -79.9818 L300.615 -79.9818 L300.615 -41.5628 L-17.6675 -41.5628 Z" clip-path="url(#clipPath2)"/>
      <text x="6.6144" xml:space="preserve" y="-56.2371" clip-path="url(#clipPath2)" font-family="sans-serif" stroke="none">Dispatcher从Label的Repository中移除Label对象</text>
    </g>
    <g fill="url(#linearGradient3)" text-rendering="geometricPrecision" shape-rendering="geometricPrecision" transform="matrix(1.1237,0,0,1.1237,59.5559,255.079)" stroke="url(#linearGradient3)">
      <path d="M330.615 -11.5628 L410.615 -11.5628 L410.615 28.4372 L330.615 28.4372 Z" stroke="none" clip-path="url(#clipPath2)"/>
    </g>
    <g text-rendering="geometricPrecision" stroke-miterlimit="1.45" shape-rendering="geometricPrecision" transform="matrix(1.1237,0,0,1.1237,59.5559,255.079)" stroke-linecap="butt">
      <path fill="none" d="M330.615 -11.5628 L410.615 -11.5628 L410.615 28.4372 L330.615 28.4372 Z" clip-path="url(#clipPath2)"/>
      <text x="343.2488" xml:space="preserve" y="12.9723" clip-path="url(#clipPath2)" font-family="sans-serif" stroke="none">移除Label</text>
    </g>
    <g fill="url(#linearGradient4)" text-rendering="geometricPrecision" shape-rendering="geometricPrecision" transform="matrix(1.1237,0,0,1.1237,59.5559,255.079)" stroke="url(#linearGradient4)">
      <path d="M278.3184 58.4372 L462.9116 58.4372 L462.9116 96.8562 L278.3184 96.8562 Z" stroke="none" clip-path="url(#clipPath2)"/>
    </g>
    <g text-rendering="geometricPrecision" stroke-miterlimit="1.45" shape-rendering="geometricPrecision" transform="matrix(1.1237,0,0,1.1237,59.5559,255.079)" stroke-linecap="butt">
      <path fill="none" d="M278.3184 58.4372 L462.9116 58.4372 L462.9116 96.8562 L278.3184 96.8562 Z" clip-path="url(#clipPath2)"/>
      <text x="286.1609" xml:space="preserve" y="75.1154" clip-path="url(#clipPath2)" font-family="sans-serif" stroke="none">移除Label上的所有Connection</text>
      <text x="288.0066" xml:space="preserve" y="89.2482" clip-path="url(#clipPath2)" font-family="sans-serif" stroke="none">（从connectionRepo中移除）</text>
    </g>
    <g fill="url(#linearGradient5)" text-rendering="geometricPrecision" shape-rendering="geometricPrecision" transform="matrix(1.1237,0,0,1.1237,59.5559,255.079)" stroke="url(#linearGradient5)">
      <path d="M523.9703 -11.5628 L618.7945 -11.5628 L618.7945 28.4372 L523.9703 28.4372 Z" stroke="none" clip-path="url(#clipPath2)"/>
    </g>
    <g text-rendering="geometricPrecision" stroke-miterlimit="1.45" shape-rendering="geometricPrecision" transform="matrix(1.1237,0,0,1.1237,59.5559,255.079)" stroke-linecap="butt">
      <path fill="none" d="M523.9703 -11.5628 L618.7945 -11.5628 L618.7945 28.4372 L523.9703 28.4372 Z" clip-path="url(#clipPath2)"/>
      <text x="530.3931" xml:space="preserve" y="12.9723" clip-path="url(#clipPath2)" font-family="sans-serif" stroke="none">移除LabelView</text>
    </g>
    <g fill="url(#linearGradient6)" text-rendering="geometricPrecision" shape-rendering="geometricPrecision" transform="matrix(1.1237,0,0,1.1237,59.5559,255.079)" stroke="url(#linearGradient6)">
      <path d="M507.4989 57.6467 L635.2659 57.6467 L635.2659 96.8562 L507.4989 96.8562 Z" stroke="none" clip-path="url(#clipPath2)"/>
    </g>
    <g text-rendering="geometricPrecision" stroke-miterlimit="1.45" shape-rendering="geometricPrecision" transform="matrix(1.1237,0,0,1.1237,59.5559,255.079)" stroke-linecap="butt">
      <path fill="none" d="M507.4989 57.6467 L635.2659 57.6467 L635.2659 96.8562 L507.4989 96.8562 Z" clip-path="url(#clipPath2)"/>
      <text x="512.6714" xml:space="preserve" y="81.7866" clip-path="url(#clipPath2)" font-family="sans-serif" stroke="none">移除ConnectionView</text>
    </g>
    <g text-rendering="geometricPrecision" stroke-miterlimit="1.45" shape-rendering="geometricPrecision" transform="matrix(1.1237,0,0,1.1237,59.5559,255.079)" stroke-linecap="butt">
      <path fill="none" d="M141.4737 -109.9818 L141.4737 -87.9467" clip-path="url(#clipPath2)"/>
      <path d="M141.4737 -79.9467 L146.4737 -91.9467 L141.4737 -88.9467 L136.4737 -91.9467 Z" clip-path="url(#clipPath2)" stroke="none"/>
      <path fill="none" d="M205.0526 -41.569 L322.9808 -5.9502" clip-path="url(#clipPath2)"/>
      <path d="M330.6391 -3.6371 L320.5974 -11.8932 L322.0235 -6.2393 L317.706 -2.3203 Z" clip-path="url(#clipPath2)" stroke="none"/>
      <path fill="none" d="M370.615 28.4093 L370.615 50.4614" clip-path="url(#clipPath2)"/>
      <path d="M370.615 58.4614 L375.615 46.4614 L370.615 49.4614 L365.615 46.4614 Z" clip-path="url(#clipPath2)" stroke="none"/>
      <path fill="none" d="M410.6606 8.4372 L515.9428 8.4372" clip-path="url(#clipPath2)"/>
      <path d="M523.9428 8.4372 L511.9428 3.4372 L514.9428 8.4372 L511.9428 13.4372 Z" clip-path="url(#clipPath2)" stroke="none"/>
      <path fill="none" d="M462.9111 77.465 L499.4808 77.393" clip-path="url(#clipPath2)"/>
      <path d="M507.4807 77.3772 L495.4709 72.4008 L498.4808 77.3949 L495.4906 82.4008 Z" clip-path="url(#clipPath2)" stroke="none"/>
    </g>
  </g>
</svg>
