<?xml version="1.0" encoding="UTF-8"?><svg xmlns="http://www.w3.org/2000/svg" xmlns:xlink="http://www.w3.org/1999/xlink" fill-opacity="1" color-rendering="auto" color-interpolation="auto" text-rendering="auto" stroke="black" stroke-linecap="square" width="853" stroke-miterlimit="10" shape-rendering="auto" stroke-opacity="1" fill="black" stroke-dasharray="none" font-weight="normal" stroke-width="1" height="681" font-family="'Dialog'" font-style="normal" stroke-linejoin="miter" font-size="12px" stroke-dashoffset="0" image-rendering="auto">
  <!--Generated by ySVG 2.5-->
  <defs id="genericDefs"/>
  <g>
    <defs id="defs1">
      <clipPath clipPathUnits="userSpaceOnUse" id="clipPath1">
        <path d="M0 0 L853 0 L853 681 L0 681 L0 0 Z"/>
      </clipPath>
      <clipPath clipPathUnits="userSpaceOnUse" id="clipPath2">
        <path d="M-142 -287 L711 -287 L711 394 L-142 394 L-142 -287 Z"/>
      </clipPath>
    </defs>
    <g fill="white" text-rendering="geometricPrecision" shape-rendering="geometricPrecision" transform="translate(142,287)" stroke="white">
      <rect x="-142" width="853" height="681" y="-287" clip-path="url(#clipPath2)" stroke="none"/>
    </g>
    <g fill="rgb(245,245,245)" text-rendering="geometricPrecision" shape-rendering="geometricPrecision" transform="matrix(1,0,0,1,142,287)" stroke="rgb(245,245,245)">
      <rect x="-197.6667" y="-345.0668" clip-path="url(#clipPath2)" width="50" rx="4" ry="4" height="50" stroke="none"/>
      <rect x="-204.5458" y="-345.0668" clip-path="url(#clipPath2)" fill="rgb(235,235,235)" width="63.7583" height="21.666" stroke="none"/>
    </g>
    <g font-size="15px" stroke-linecap="butt" transform="matrix(1,0,0,1,142,287)" text-rendering="geometricPrecision" font-family="sans-serif" shape-rendering="geometricPrecision" stroke-miterlimit="1.45">
      <text x="-202.5458" xml:space="preserve" y="-328.5648" clip-path="url(#clipPath2)" stroke="none">Folder 1</text>
      <rect x="-197.6667" y="-345.0668" clip-path="url(#clipPath2)" fill="none" width="50" stroke-dasharray="6,2" rx="4" ry="4" height="50"/>
    </g>
    <g fill="rgb(245,245,245)" text-rendering="geometricPrecision" shape-rendering="geometricPrecision" transform="matrix(1,0,0,1,142,287)" stroke="rgb(245,245,245)">
      <rect x="-62" y="-69.666" clip-path="url(#clipPath2)" width="327" rx="4" ry="4" height="223.666" stroke="none"/>
      <rect x="-62" y="-69.666" clip-path="url(#clipPath2)" fill="rgb(235,235,235)" width="327" height="21.666" stroke="none"/>
    </g>
    <g font-size="15px" stroke-linecap="butt" transform="matrix(1,0,0,1,142,287)" text-rendering="geometricPrecision" font-family="sans-serif" shape-rendering="geometricPrecision" stroke-miterlimit="1.45">
      <text x="225.6025" xml:space="preserve" y="-53.1641" clip-path="url(#clipPath2)" stroke="none">Store</text>
      <rect x="-62" y="-69.666" clip-path="url(#clipPath2)" fill="none" width="327" stroke-dasharray="6,2" rx="4" ry="4" height="223.666"/>
    </g>
    <g fill="rgb(255,204,0)" text-rendering="geometricPrecision" shape-rendering="geometricPrecision" transform="matrix(1,0,0,1,142,287)" stroke="rgb(255,204,0)">
      <rect x="160" y="-33" clip-path="url(#clipPath2)" width="50" rx="4" ry="4" height="29" stroke="none"/>
    </g>
    <g text-rendering="geometricPrecision" stroke-miterlimit="1.45" shape-rendering="geometricPrecision" transform="matrix(1,0,0,1,142,287)" stroke-linecap="butt">
      <rect x="160" y="-33" clip-path="url(#clipPath2)" fill="none" width="50" rx="4" ry="4" height="29"/>
      <text x="173" xml:space="preserve" y="-13.9648" clip-path="url(#clipPath2)" font-family="sans-serif" stroke="none">Line</text>
    </g>
    <g fill="rgb(255,204,0)" text-rendering="geometricPrecision" shape-rendering="geometricPrecision" transform="matrix(1,0,0,1,142,287)" stroke="rgb(255,204,0)">
      <rect x="145.5" y="85" clip-path="url(#clipPath2)" width="79" rx="4" ry="4" height="29" stroke="none"/>
    </g>
    <g text-rendering="geometricPrecision" stroke-miterlimit="1.45" shape-rendering="geometricPrecision" transform="matrix(1,0,0,1,142,287)" stroke-linecap="butt">
      <rect x="145.5" y="85" clip-path="url(#clipPath2)" fill="none" width="79" rx="4" ry="4" height="29"/>
      <text x="151.9121" xml:space="preserve" y="104.0352" clip-path="url(#clipPath2)" font-family="sans-serif" stroke="none">Connection</text>
    </g>
    <g fill="rgb(255,204,0)" text-rendering="geometricPrecision" shape-rendering="geometricPrecision" transform="matrix(1,0,0,1,142,287)" stroke="rgb(255,204,0)">
      <rect x="160" y="26" clip-path="url(#clipPath2)" width="50" rx="4" ry="4" height="29" stroke="none"/>
    </g>
    <g text-rendering="geometricPrecision" stroke-miterlimit="1.45" shape-rendering="geometricPrecision" transform="matrix(1,0,0,1,142,287)" stroke-linecap="butt">
      <rect x="160" y="26" clip-path="url(#clipPath2)" fill="none" width="50" rx="4" ry="4" height="29"/>
      <text x="169.6338" xml:space="preserve" y="45.0352" clip-path="url(#clipPath2)" font-family="sans-serif" stroke="none">Label</text>
    </g>
    <g fill="rgb(255,204,0)" text-rendering="geometricPrecision" shape-rendering="geometricPrecision" transform="matrix(1,0,0,1,142,287)" stroke="rgb(255,204,0)">
      <rect x="-28" y="26" clip-path="url(#clipPath2)" width="92" rx="4" ry="4" height="29" stroke="none"/>
    </g>
    <g text-rendering="geometricPrecision" stroke-miterlimit="1.45" shape-rendering="geometricPrecision" transform="matrix(1,0,0,1,142,287)" stroke-linecap="butt">
      <rect x="-28" y="26" clip-path="url(#clipPath2)" fill="none" width="92" rx="4" ry="4" height="29"/>
      <text x="-23.4346" xml:space="preserve" y="45.0352" clip-path="url(#clipPath2)" font-family="sans-serif" stroke="none">LabelCategory</text>
    </g>
    <g fill="rgb(255,204,0)" text-rendering="geometricPrecision" shape-rendering="geometricPrecision" transform="matrix(1,0,0,1,142,287)" stroke="rgb(255,204,0)">
      <rect x="-47" y="85" clip-path="url(#clipPath2)" width="130" rx="4" ry="4" height="29" stroke="none"/>
    </g>
    <g text-rendering="geometricPrecision" stroke-miterlimit="1.45" shape-rendering="geometricPrecision" transform="matrix(1,0,0,1,142,287)" stroke-linecap="butt">
      <rect x="-47" y="85" clip-path="url(#clipPath2)" fill="none" width="130" rx="4" ry="4" height="29"/>
      <text x="-41.1562" xml:space="preserve" y="104.0352" clip-path="url(#clipPath2)" font-family="sans-serif" stroke="none">ConnectionCategory</text>
      <path fill="none" d="M160.0071 40.5 L64.0067 40.5" clip-path="url(#clipPath2)"/>
      <path fill="none" d="M145.4924 99.5 L83.0224 99.5" clip-path="url(#clipPath2)"/>
    </g>
    <g fill="rgb(245,245,245)" text-rendering="geometricPrecision" shape-rendering="geometricPrecision" transform="matrix(1,0,0,1,142,287)" stroke="rgb(245,245,245)">
      <rect x="300" y="-107.332" clip-path="url(#clipPath2)" width="248" rx="4" ry="4" height="236.332" stroke="none"/>
      <rect x="300" y="-107.332" clip-path="url(#clipPath2)" fill="rgb(235,235,235)" width="248" height="21.666" stroke="none"/>
    </g>
    <g font-size="15px" stroke-linecap="butt" transform="matrix(1,0,0,1,142,287)" text-rendering="geometricPrecision" font-family="sans-serif" shape-rendering="geometricPrecision" stroke-miterlimit="1.45">
      <text x="511.9424" xml:space="preserve" y="-90.8301" clip-path="url(#clipPath2)" stroke="none">View</text>
      <rect x="300" y="-107.332" clip-path="url(#clipPath2)" fill="none" width="248" stroke-dasharray="6,2" rx="4" ry="4" height="236.332"/>
    </g>
    <g fill="rgb(255,204,0)" text-rendering="geometricPrecision" shape-rendering="geometricPrecision" transform="matrix(1,0,0,1,142,287)" stroke="rgb(255,204,0)">
      <rect x="331" y="26" clip-path="url(#clipPath2)" width="73" rx="4" ry="4" height="29" stroke="none"/>
    </g>
    <g text-rendering="geometricPrecision" stroke-miterlimit="1.45" shape-rendering="geometricPrecision" transform="matrix(1,0,0,1,142,287)" stroke-linecap="butt">
      <rect x="331" y="26" clip-path="url(#clipPath2)" fill="none" width="73" rx="4" ry="4" height="29"/>
      <text x="338.5107" xml:space="preserve" y="45.0352" clip-path="url(#clipPath2)" font-family="sans-serif" stroke="none">LabelView</text>
    </g>
    <g fill="rgb(255,204,0)" text-rendering="geometricPrecision" shape-rendering="geometricPrecision" transform="matrix(1,0,0,1,142,287)" stroke="rgb(255,204,0)">
      <rect x="315" y="85" clip-path="url(#clipPath2)" width="105" rx="4" ry="4" height="29" stroke="none"/>
    </g>
    <g text-rendering="geometricPrecision" stroke-miterlimit="1.45" shape-rendering="geometricPrecision" transform="matrix(1,0,0,1,142,287)" stroke-linecap="butt">
      <rect x="315" y="85" clip-path="url(#clipPath2)" fill="none" width="105" rx="4" ry="4" height="29"/>
      <text x="320.7891" xml:space="preserve" y="104.0352" clip-path="url(#clipPath2)" font-family="sans-serif" stroke="none">ConnectionView</text>
      <path fill="none" d="M209.9957 40.5 L323.0079 40.5" clip-path="url(#clipPath2)"/>
      <path d="M331.0079 40.5 L319.0079 35.5 L322.0079 40.5 L319.0079 45.5 Z" clip-path="url(#clipPath2)" stroke="none"/>
      <path fill="none" d="M224.5209 99.5 L307.0348 99.5" clip-path="url(#clipPath2)"/>
      <path d="M315.0348 99.5 L303.0348 94.5 L306.0348 99.5 L303.0348 104.5 Z" clip-path="url(#clipPath2)" stroke="none"/>
    </g>
    <g fill="rgb(225,225,225)" text-rendering="geometricPrecision" shape-rendering="geometricPrecision" transform="matrix(1,0,0,1,142,287)" stroke="rgb(225,225,225)">
      <rect x="316" y="-70.666" clip-path="url(#clipPath2)" width="217" rx="4" ry="4" height="81.666" stroke="none"/>
      <rect x="316" y="-70.666" clip-path="url(#clipPath2)" fill="rgb(235,235,235)" width="217" height="21.666" stroke="none"/>
    </g>
    <g font-size="15px" stroke-linecap="butt" transform="matrix(1,0,0,1,142,287)" text-rendering="geometricPrecision" font-family="sans-serif" shape-rendering="geometricPrecision" stroke-miterlimit="1.45">
      <text x="466.9424" xml:space="preserve" y="-54.1641" clip-path="url(#clipPath2)" stroke="none">LineView</text>
      <rect x="316" y="-70.666" clip-path="url(#clipPath2)" fill="none" width="217" stroke-dasharray="6,2" rx="4" ry="4" height="81.666"/>
    </g>
    <g fill="rgb(255,204,0)" text-rendering="geometricPrecision" shape-rendering="geometricPrecision" transform="matrix(1,0,0,1,142,287)" stroke="rgb(255,204,0)">
      <rect x="331" y="-33" clip-path="url(#clipPath2)" width="73" rx="4" ry="4" height="29" stroke="none"/>
    </g>
    <g text-rendering="geometricPrecision" stroke-miterlimit="1.45" shape-rendering="geometricPrecision" transform="matrix(1,0,0,1,142,287)" stroke-linecap="butt">
      <rect x="331" y="-33" clip-path="url(#clipPath2)" fill="none" width="73" rx="4" ry="4" height="29"/>
      <text x="341.877" xml:space="preserve" y="-13.9648" clip-path="url(#clipPath2)" font-family="sans-serif" stroke="none">LineView</text>
    </g>
    <g fill="rgb(255,204,0)" text-rendering="geometricPrecision" shape-rendering="geometricPrecision" transform="matrix(1,0,0,1,142,287)" stroke="rgb(255,204,0)">
      <rect x="434" y="-34" clip-path="url(#clipPath2)" width="84" rx="4" ry="4" height="30" stroke="none"/>
    </g>
    <g text-rendering="geometricPrecision" stroke-miterlimit="1.45" shape-rendering="geometricPrecision" transform="matrix(1,0,0,1,142,287)" stroke-linecap="butt">
      <rect x="434" y="-34" clip-path="url(#clipPath2)" fill="none" width="84" rx="4" ry="4" height="30"/>
      <text x="441.6729" xml:space="preserve" y="-14.4648" clip-path="url(#clipPath2)" font-family="sans-serif" stroke="none">TopContext</text>
      <path fill="none" d="M419.9752 99.5 L476 99.5 L476 19.0092" clip-path="url(#clipPath2)"/>
      <path d="M476 11.0092 L471 23.0092 L476 20.0092 L481 23.0092 Z" clip-path="url(#clipPath2)" stroke="none"/>
      <rect x="446.771" y="90.4336" clip-path="url(#clipPath2)" fill="white" width="14.916" height="18.1328" stroke="none"/>
      <text x="448.771" xml:space="preserve" y="104.0352" clip-path="url(#clipPath2)" font-family="sans-serif" stroke="none">in</text>
      <path fill="none" d="M403.9757 40.5 L476 40.5 L476 19.0092" clip-path="url(#clipPath2)"/>
      <path d="M476 11.0092 L471 23.0092 L476 20.0092 L481 23.0092 Z" clip-path="url(#clipPath2)" stroke="none"/>
      <rect x="438.771" y="31.4336" clip-path="url(#clipPath2)" fill="white" width="14.916" height="18.1328" stroke="none"/>
      <text x="440.771" xml:space="preserve" y="45.0352" clip-path="url(#clipPath2)" font-family="sans-serif" stroke="none">in</text>
      <path fill="none" d="M209.9957 -18.5 L323.0079 -18.5" clip-path="url(#clipPath2)"/>
      <path d="M331.0079 -18.5 L319.0079 -23.5 L322.0079 -18.5 L319.0079 -13.5 Z" clip-path="url(#clipPath2)" stroke="none"/>
      <path fill="none" d="M403.9757 -18.6681 L425.9742 -18.7695" clip-path="url(#clipPath2)"/>
      <path d="M433.9741 -18.8063 L421.9512 -23.751 L424.9742 -18.7649 L421.9973 -13.7511 Z" clip-path="url(#clipPath2)" stroke="none"/>
    </g>
  </g>
</svg>
