<?xml version="1.0" encoding="UTF-8"?><svg xmlns="http://www.w3.org/2000/svg" xmlns:xlink="http://www.w3.org/1999/xlink" fill-opacity="1" color-rendering="auto" color-interpolation="auto" text-rendering="auto" stroke="black" stroke-linecap="square" width="440" stroke-miterlimit="10" shape-rendering="auto" stroke-opacity="1" fill="black" stroke-dasharray="none" font-weight="normal" stroke-width="1" height="390" font-family="'Dialog'" font-style="normal" stroke-linejoin="miter" font-size="12px" stroke-dashoffset="0" image-rendering="auto">
  <!--Generated by ySVG 2.5-->
  <defs id="genericDefs"/>
  <g>
    <defs id="defs1">
      <clipPath clipPathUnits="userSpaceOnUse" id="clipPath1">
        <path d="M0 0 L440 0 L440 390 L0 390 L0 0 Z"/>
      </clipPath>
      <clipPath clipPathUnits="userSpaceOnUse" id="clipPath2">
        <path d="M153 3 L593 3 L593 393 L153 393 L153 3 Z"/>
      </clipPath>
      <clipPath clipPathUnits="userSpaceOnUse" id="clipPath3">
        <path d="M-194.6065 -72.5233 L246.2692 -72.5233 L246.2692 317.5253 L-194.6065 317.5253 L-194.6065 -72.5233 Z"/>
      </clipPath>
    </defs>
    <g fill="white" text-rendering="geometricPrecision" shape-rendering="geometricPrecision" transform="translate(-153,-3)" stroke="white">
      <rect x="153" width="440" height="390" y="3" clip-path="url(#clipPath2)" stroke="none"/>
    </g>
    <g fill="white" text-rendering="geometricPrecision" shape-rendering="geometricPrecision" transform="matrix(1,0,0,1,-153,-3)" stroke="white">
      <rect x="168" y="18.9332" clip-path="url(#clipPath2)" width="410" rx="4" ry="4" height="359.0668" stroke="none"/>
      <rect x="168" y="18.9332" clip-path="url(#clipPath2)" fill="rgb(235,235,235)" width="410" height="21.666" stroke="none"/>
    </g>
    <g font-size="15px" stroke-linecap="butt" transform="matrix(1,0,0,1,-153,-3)" text-rendering="geometricPrecision" font-family="sans-serif" shape-rendering="geometricPrecision" stroke-miterlimit="1.45">
      <text x="546" xml:space="preserve" y="35.4352" clip-path="url(#clipPath2)" stroke="none">架构</text>
      <rect x="168" y="18.9332" clip-path="url(#clipPath2)" fill="none" width="410" stroke-dasharray="6,2" rx="4" ry="4" height="359.0668"/>
    </g>
    <g fill="rgb(255,204,0)" text-rendering="geometricPrecision" shape-rendering="geometricPrecision" transform="matrix(1,0,0,1,-153,-3)" stroke="rgb(255,204,0)">
      <rect x="336.5" y="233" clip-path="url(#clipPath2)" width="78" rx="4" ry="4" height="30" stroke="none"/>
    </g>
    <g text-rendering="geometricPrecision" stroke-miterlimit="1.45" shape-rendering="geometricPrecision" transform="matrix(1,0,0,1,-153,-3)" stroke-linecap="butt">
      <rect x="336.5" y="233" clip-path="url(#clipPath2)" fill="none" width="78" rx="4" ry="4" height="30"/>
      <text x="346.2852" xml:space="preserve" y="252.5352" clip-path="url(#clipPath2)" font-family="sans-serif" stroke="none">Annotator</text>
    </g>
    <g fill="rgb(255,204,0)" text-rendering="geometricPrecision" shape-rendering="geometricPrecision" transform="matrix(1,0,0,1,-153,-3)" stroke="rgb(255,204,0)">
      <rect x="490" y="233" clip-path="url(#clipPath2)" width="55" rx="4" ry="4" height="30" stroke="none"/>
    </g>
    <g text-rendering="geometricPrecision" stroke-miterlimit="1.45" shape-rendering="geometricPrecision" transform="matrix(1,0,0,1,-153,-3)" stroke-linecap="butt">
      <rect x="490" y="233" clip-path="url(#clipPath2)" fill="none" width="55" rx="4" ry="4" height="30"/>
      <text x="503.877" xml:space="preserve" y="252.5352" clip-path="url(#clipPath2)" font-family="sans-serif" stroke="none">View</text>
    </g>
    <g fill="rgb(255,204,0)" text-rendering="geometricPrecision" shape-rendering="geometricPrecision" transform="matrix(1,0,0,1,-153,-3)" stroke="rgb(255,204,0)">
      <rect x="490" y="333" clip-path="url(#clipPath2)" width="55" rx="4" ry="4" height="30" stroke="none"/>
    </g>
    <g text-rendering="geometricPrecision" stroke-miterlimit="1.45" shape-rendering="geometricPrecision" transform="matrix(1,0,0,1,-153,-3)" stroke-linecap="butt">
      <rect x="490" y="333" clip-path="url(#clipPath2)" fill="none" width="55" rx="4" ry="4" height="30"/>
      <text x="502.541" xml:space="preserve" y="352.5352" clip-path="url(#clipPath2)" font-family="sans-serif" stroke="none">Store</text>
    </g>
    <g fill="rgb(255,204,0)" text-rendering="geometricPrecision" shape-rendering="geometricPrecision" transform="matrix(1,0,0,1,-153,-3)" stroke="rgb(255,204,0)">
      <rect x="183" y="233" clip-path="url(#clipPath2)" width="78" rx="4" ry="4" height="30" stroke="none"/>
    </g>
    <g text-rendering="geometricPrecision" stroke-miterlimit="1.45" shape-rendering="geometricPrecision" transform="matrix(1,0,0,1,-153,-3)" stroke-linecap="butt">
      <rect x="183" y="233" clip-path="url(#clipPath2)" fill="none" width="78" rx="4" ry="4" height="30"/>
      <text x="190.7842" xml:space="preserve" y="252.5352" clip-path="url(#clipPath2)" font-family="sans-serif" stroke="none">Dispatcher</text>
    </g>
    <g text-rendering="geometricPrecision" shape-rendering="geometricPrecision" transform="matrix(0.998,0,0,0.9999,194.2199,72.5142)">
      <g clip-path="url(#clipPath3)">
        <svg xml:space="preserve" opacity="1" writing-mode="lr-tb" stop-color="rgb(0, 0, 0)" shape-rendering="auto" glyph-orientation-horizontal="0deg" color-profile="auto" lighting-color="rgb(255, 255, 255)" color="rgb(0, 0, 0)" font-weight="400" alignment-baseline="auto" font-style="normal" version="1.1" color-interpolation-filters="linearrgb" text-anchor="start" stroke-linecap="butt" color-interpolation="srgb" font-variant="normal" word-spacing="normal" fill-opacity="1" text-rendering="auto" clip-path="none" text-decoration="none" letter-spacing="normal" viewBox="0 0 57 65" glyph-orientation-vertical="auto" display="inline" font-size-adjust="none" overflow="visible" fill="rgb(0, 0, 0)" font-stretch="normal" stroke-dasharray="none" id="svg1.Ebene_1" stroke-miterlimit="4" stop-opacity="1" color-rendering="auto" font-size="12" pointer-events="visiblepainted" mask="none" direction="ltr" baseline-shift="baseline" enable-background="new 0 0 57 65" fill-rule="nonzero" image-rendering="auto" stroke-dashoffset="0" width="57px" marker-end="none" clip="auto" cursor="auto" stroke="none" filter="none" visibility="visible" kerning="auto" stroke-width="1" font-family="&quot;Arial&quot;,&quot;Helvetica&quot;,sans-serif" flood-opacity="1" clip-rule="nonzero" src="none" height="65px" unicode-bidi="normal" stroke-linejoin="miter" stroke-opacity="1" flood-color="rgb(0, 0, 0)" dominant-baseline="auto" marker-start="none" x="0px" marker-mid="none" y="0px">
<g>
	
		<linearGradient gradientTransform="matrix(1 0 0 1 0.3203 -3091.7656)" x1="26.3398" x2="27.5807" gradientUnits="userSpaceOnUse" y1="3115.7266" y2="3145.5239" id="svg1.SVGID_1_">
		<stop offset="0.2711" style="stop-color:#FFAB4F"/>
		<stop offset="1" style="stop-color:#FFD28F"/>
	</linearGradient>
	<path fill="url(#svg1.SVGID_1_)" d="M49.529,51.225c-4.396-4.396-10.951-5.884-12.063-6.109   V37.8H19.278c0,0,0.038,6.903,0,6.868c0,0-6.874,0.997-12.308,6.432C1.378,56.691,0.5,62.77,0.5,62.77   c0,1.938,1.575,3.492,3.523,3.492h48.51c1.947,0,3.521-1.558,3.521-3.492C56.055,62.768,54.211,55.906,49.529,51.225z" stroke-miterlimit="10" stroke="#ED9135"/>
	<path fill="#ECECEC" id="svg1.body_18_" d="M0.5,62.768c0,1.938,1.575,3.494,3.523,3.494h48.51   c1.947,0,3.521-1.559,3.521-3.494c0,0-1.844-6.861-6.525-11.543c-4.815-4.813-11.244-6.146-11.244-6.146   c-1.771,1.655-5.61,3.802-10.063,3.802c-4.453,0-8.292-2.146-10.063-3.802c0,0-5.755,0.586-11.189,6.021   C1.378,56.689,0.5,62.768,0.5,62.768z" stroke-miterlimit="10" stroke="#9B9B9B"/>
	
		<radialGradient gradientTransform="matrix(1 0 0 -1 0.04 64.1543)" id="svg1.SVGID_2_" r="17.7954" cx="22.6621" gradientUnits="userSpaceOnUse" cy="21.707">
		<stop offset="0" style="stop-color:#FCB57A"/>
		<stop offset="1" style="stop-color:#FF8C36"/>
	</radialGradient>
	<path fill="url(#svg1.SVGID_2_)" d="M28.106,33.486c-8.112,0-12.688,4.313-12.688,10.438   c0,7.422,12.688,10.438,12.688,10.438s14.688-3.016,14.688-10.438C42.793,38.75,36.215,33.486,28.106,33.486z M26.288,53.051   c0,0-7.135-2.093-8.805-7.201c-0.222-0.682,0.147-1.156,0.795-1.521V37.8h20.188v6.663c0.235,0.352,1.109,0.737,1.229,1.387   C40.445,49.917,26.288,53.051,26.288,53.051z" stroke="#E55E03"/>
	
		<radialGradient gradientTransform="matrix(1 0 0 1 0.0801 -773.6914)" id="svg1.SVGID_3_" r="32.3071" cx="15.2056" gradientUnits="userSpaceOnUse" cy="831.1875">
		<stop offset="0" style="stop-color:#FCB57A"/>
		<stop offset="1" style="stop-color:#FF8C36"/>
	</radialGradient>
	<path fill="url(#svg1.SVGID_3_)" d="M49.529,51.225c-2.239-2.24-5.041-3.724-7.396-4.67   c-2.854,5.51-14.021,7.807-14.021,7.807s-10.472-2.483-12.387-8.514c-2.439,0.771-5.787,2.287-8.749,5.25   c-5.592,5.592-6.47,11.67-6.47,11.67c0,1.938,1.575,3.492,3.523,3.492h48.51c1.946,0,3.521-1.558,3.521-3.492   C56.055,62.768,54.211,55.906,49.529,51.225z" stroke="#E55E03"/>
	
		<radialGradient gradientTransform="matrix(1 0 0 -1 0.04 64.1543)" id="svg1.SVGID_4_" r="11.8931" cx="17.0723" gradientUnits="userSpaceOnUse" cy="18.4907">
		<stop offset="0" style="stop-color:#FCB57A"/>
		<stop offset="1" style="stop-color:#FF8C36"/>
	</radialGradient>
	<path fill="url(#svg1.SVGID_4_)" d="M13.404,44.173c1.15-1.81,2.039-3.832,3.332-5.397   c-0.514,1.027-1.669,4.084-1.669,5.148c0,5.186,10.366,9.079,14.688,10.438c-3.472,1.627-9.134-1.498-11.334-2.359   c-3.601-1.419-4.071-3.063-5.89-4.854C12.523,47.135,12.878,45,13.404,44.173z" stroke="#E55E03"/>
	
		<radialGradient gradientTransform="matrix(1 0 0 -1 0.04 64.1543)" id="svg1.SVGID_5_" r="14.63" cx="31.8184" gradientUnits="userSpaceOnUse" cy="19.3525">
		<stop offset="0" style="stop-color:#FCB57A"/>
		<stop offset="1" style="stop-color:#FF8C36"/>
	</radialGradient>
	<path fill="url(#svg1.SVGID_5_)" d="M45.777,43.924c-1.317-1.568-5.11-9.424-6.604-6.617   c0.516,1.025,3.617,3.693,3.617,6.617c0,5.186-10.271,8.576-16.699,9.145c1.429,4.938,11.373,1.293,13.805-0.313   c3.563-2.354,4.563-5.133,7.854-3.705C47.754,49.045,48.006,46.574,45.777,43.924z" stroke="#E55E03"/>
	
		<radialGradient gradientTransform="matrix(1 0 0 -1 0.04 64.1543)" id="svg1.SVGID_6_" r="5.2028" cx="30.4893" gradientUnits="userSpaceOnUse" cy="4.8721">
		<stop offset="0" style="stop-color:#FCB57A"/>
		<stop offset="1" style="stop-color:#FF8C36"/>
	</radialGradient>
	<path fill="url(#svg1.SVGID_6_)" d="M30.777,54.167c0.357,0.836-0.153,1.983-0.352,2.813   c-0.256,1.084-0.072,2.104,0.102,3.186c0.164,1.02,0.156,2.107,0.25,3.167c0.082,0.916,0.482,1.849,0.357,2.75" stroke="#E55E03"/>
	
		<radialGradient gradientTransform="matrix(1 0 0 -1 0.04 64.1543)" id="svg1.SVGID_7_" r="5.5143" cx="23.2871" gradientUnits="userSpaceOnUse" cy="5.3008">
		<stop offset="0" style="stop-color:#FCB57A"/>
		<stop offset="1" style="stop-color:#FF8C36"/>
	</radialGradient>
	<path fill="url(#svg1.SVGID_7_)" d="M23.695,53.417c-0.508,0.584-0.476,2.209-0.398,3   c0.116,1.183,0.456,2.099,0.333,3.333c-0.192,1.943,0.154,4.479-0.436,6.333" stroke="#E55E03"/>
	
		<radialGradient gradientTransform="matrix(1 0 0 1 0.3203 -3091.7656)" gradientUnits="userSpaceOnUse" r="23.425" cx="27.5835" id="svg1.face_x5F_white_1_" cy="3117.4922" fx="23.0139" fy="3115.0024">
		<stop offset="0" style="stop-color:#FFD28F"/>
		<stop offset="1" style="stop-color:#FFAB4F"/>
	</radialGradient>
	<path fill="url(#svg1.face_x5F_white_1_)" id="svg1.face_x5F_white_3_" d="M43.676,23.357   c0.086,10.2-6.738,18.52-15.25,18.586c-8.5,0.068-15.464-8.146-15.55-18.344C12.794,13.4,19.618,5.079,28.123,5.012   C36.627,4.945,43.59,13.158,43.676,23.357z" stroke-miterlimit="10" stroke="#ED9135"/>
	
		<linearGradient gradientTransform="matrix(0.275 0 0 -0.2733 -1752.8849 -3351.7349)" x1="6468.501" x2="6492.1304" gradientUnits="userSpaceOnUse" y1="-12291.5195" y2="-12384.9688" id="svg1.face_highlight_1_">
		<stop offset="0" style="stop-color:#FFFFFF;stop-opacity:0.24"/>
		<stop offset="1" style="stop-color:#FFFFFF;stop-opacity:0.16"/>
	</linearGradient>
	<path fill="url(#svg1.face_highlight_1_)" id="svg1.face_highlight_3_" d="M28.415,5.625c-6.035,0.047-10.747,4.493-12.787,10.386   c-0.664,1.919-0.294,4.043,0.98,5.629c2.73,3.398,5.729,6.283,9.461,8.088c3.137,1.518,7.535,2.385,11.893,1.247   c2.274-0.592,3.988-2.459,4.375-4.766c0.187-1.094,0.293-2.289,0.283-3.553C42.54,13.244,36.729,5.56,28.415,5.625z"/>
	<path fill="#5C5C5C" d="M20.278,13.25   c3.417,4.333,9.333,6.917,9.333,6.917l-1.417-3.5c0,0,7.094,4.691,8.083,4.333c0.968-0.2-1.082-3.807-1.082-3.807   s3.138,1.795,4.854,3.969c1.803,2.28,4.285,3.504,4.285,3.504S47.027,2.719,27.289,2.744C8.278,2.709,12.058,27.678,12.058,27.678   L14.695,17c0,0,0.914,5.757,1.399,4.875C17.861,15.211,18.861,11.5,20.278,13.25z" id="svg1.Hair_Young_Black_1_" stroke="#353535" stroke-linecap="round" stroke-linejoin="round"/>
</g>
</svg>
      </g>
    </g>
    <g text-rendering="geometricPrecision" stroke-miterlimit="1.45" shape-rendering="geometricPrecision" font-family="sans-serif" transform="matrix(1,0,0,1,-153,-3)" stroke-linecap="butt">
      <text x="347.5303" xml:space="preserve" y="69.2008" clip-path="url(#clipPath2)" stroke="none">UserCode</text>
    </g>
    <g fill="rgb(255,204,0)" text-rendering="geometricPrecision" shape-rendering="geometricPrecision" transform="matrix(1,0,0,1,-153,-3)" stroke="rgb(255,204,0)">
      <rect x="193.7199" y="95" clip-path="url(#clipPath2)" width="56.5602" rx="4" ry="4" height="30" stroke="none"/>
    </g>
    <g text-rendering="geometricPrecision" stroke-miterlimit="1.45" shape-rendering="geometricPrecision" transform="matrix(1,0,0,1,-153,-3)" stroke-linecap="butt">
      <rect x="193.7199" y="95" clip-path="url(#clipPath2)" fill="none" width="56.5602" rx="4" ry="4" height="30"/>
      <text x="203.3994" xml:space="preserve" y="114.5352" clip-path="url(#clipPath2)" font-family="sans-serif" stroke="none">Action</text>
      <path fill="none" d="M490.0083 248 L422.4988 248" clip-path="url(#clipPath2)"/>
      <path d="M414.4988 248 L426.4988 253 L423.4988 248 L426.4988 243 Z" clip-path="url(#clipPath2)" stroke="none"/>
      <rect x="434.4912" y="238.9336" clip-path="url(#clipPath2)" fill="white" width="35.5176" height="18.1328" stroke="none"/>
      <text x="436.4912" xml:space="preserve" y="252.5352" clip-path="url(#clipPath2)" font-family="sans-serif" stroke="none">event</text>
      <path fill="none" d="M517.5 333.0098 L517.5 270.9846" clip-path="url(#clipPath2)"/>
      <path d="M517.5 262.9846 L512.5 274.9846 L517.5 271.9846 L522.5 274.9846 Z" clip-path="url(#clipPath2)" stroke="none"/>
      <rect x="469.5918" y="281.8672" clip-path="url(#clipPath2)" fill="white" width="95.8164" height="32.2656" stroke="none"/>
      <text x="500.7715" xml:space="preserve" y="295.4688" clip-path="url(#clipPath2)" font-family="sans-serif" stroke="none">notify</text>
      <text x="471.5918" xml:space="preserve" y="309.6016" clip-path="url(#clipPath2)" font-family="sans-serif" stroke="none">(when changed)</text>
      <path fill="none" d="M222 262.9902 L222 348 L481.9772 348" clip-path="url(#clipPath2)"/>
      <path d="M489.9772 348 L477.9772 343 L480.9772 348 L477.9772 353 Z" clip-path="url(#clipPath2)" stroke="none"/>
      <rect x="344.082" y="338.9336" clip-path="url(#clipPath2)" fill="white" width="45.8359" height="18.1328" stroke="none"/>
      <text x="346.082" xml:space="preserve" y="352.5352" clip-path="url(#clipPath2)" font-family="sans-serif" stroke="none">change</text>
      <path fill="none" d="M394.5246 232.9635 L394.5246 150.2852" clip-path="url(#clipPath2)"/>
      <path d="M394.5246 142.2852 L389.5246 154.2852 L394.5246 151.2852 L399.5246 154.2852 Z" clip-path="url(#clipPath2)" stroke="none"/>
      <rect x="376.7658" y="178.5676" clip-path="url(#clipPath2)" fill="white" width="35.5176" height="18.1328" stroke="none"/>
      <text x="378.7658" xml:space="preserve" y="192.1691" clip-path="url(#clipPath2)" font-family="sans-serif" stroke="none">event</text>
      <path fill="none" d="M357.9296 142.2823 L357.9296 224.9791" clip-path="url(#clipPath2)"/>
      <path d="M357.9296 232.9791 L362.9296 220.9791 L357.9296 223.9791 L352.9296 220.9791 Z" clip-path="url(#clipPath2)" stroke="none"/>
      <rect x="338.1581" y="178.5676" clip-path="url(#clipPath2)" fill="white" width="39.543" height="18.1328" stroke="none"/>
      <text x="340.1581" xml:space="preserve" y="192.1691" clip-path="url(#clipPath2)" font-family="sans-serif" stroke="none">create</text>
      <path fill="none" d="M362.1212 110 L258.2911 110" clip-path="url(#clipPath2)"/>
      <path d="M250.2911 110 L262.2911 115 L259.2911 110 L262.2911 105 Z" clip-path="url(#clipPath2)" stroke="none"/>
      <rect x="278.9785" y="100.9336" clip-path="url(#clipPath2)" fill="white" width="39.543" height="18.1328" stroke="none"/>
      <text x="280.9785" xml:space="preserve" y="114.5352" clip-path="url(#clipPath2)" font-family="sans-serif" stroke="none">create</text>
      <path fill="none" d="M222 124.9927 L222 225.0145" clip-path="url(#clipPath2)"/>
      <path d="M222 233.0145 L227 221.0145 L222 224.0145 L217 221.0145 Z" clip-path="url(#clipPath2)" stroke="none"/>
      <rect x="206.0986" y="169.9336" clip-path="url(#clipPath2)" fill="white" width="31.8027" height="18.1328" stroke="none"/>
      <text x="208.0986" xml:space="preserve" y="183.5352" clip-path="url(#clipPath2)" font-family="sans-serif" stroke="none">send</text>
    </g>
  </g>
</svg>
