<?xml version="1.0" encoding="UTF-8"?><svg xmlns="http://www.w3.org/2000/svg" xmlns:xlink="http://www.w3.org/1999/xlink" fill-opacity="1" color-rendering="auto" color-interpolation="auto" text-rendering="auto" stroke="black" stroke-linecap="square" width="853" stroke-miterlimit="10" shape-rendering="auto" stroke-opacity="1" fill="black" stroke-dasharray="none" font-weight="normal" stroke-width="1" height="696" font-family="'Dialog'" font-style="normal" stroke-linejoin="miter" font-size="12px" stroke-dashoffset="0" image-rendering="auto">
  <!--Generated by ySVG 2.5-->
  <defs id="genericDefs"/>
  <g>
    <defs id="defs1">
      <linearGradient x1="-76" gradientUnits="userSpaceOnUse" x2="68" y1="-161" y2="-121" id="linearGradient1" spreadMethod="reflect">
        <stop stop-opacity="1" stop-color="rgb(232,238,247)" offset="0%"/>
        <stop stop-opacity="1" stop-color="rgb(183,201,227)" offset="100%"/>
      </linearGradient>
      <linearGradient x1="-44" gradientUnits="userSpaceOnUse" x2="36" y1="-91" y2="-51" id="linearGradient2" spreadMethod="reflect">
        <stop stop-opacity="1" stop-color="rgb(232,238,247)" offset="0%"/>
        <stop stop-opacity="1" stop-color="rgb(183,201,227)" offset="100%"/>
      </linearGradient>
      <linearGradient x1="-44" gradientUnits="userSpaceOnUse" x2="36" y1="-21" y2="19" id="linearGradient3" spreadMethod="reflect">
        <stop stop-opacity="1" stop-color="rgb(232,238,247)" offset="0%"/>
        <stop stop-opacity="1" stop-color="rgb(183,201,227)" offset="100%"/>
      </linearGradient>
      <linearGradient x1="66" gradientUnits="userSpaceOnUse" x2="189" y1="49" y2="89" id="linearGradient4" spreadMethod="reflect">
        <stop stop-opacity="1" stop-color="rgb(232,238,247)" offset="0%"/>
        <stop stop-opacity="1" stop-color="rgb(183,201,227)" offset="100%"/>
      </linearGradient>
      <linearGradient x1="312.6531" gradientUnits="userSpaceOnUse" x2="406.6531" y1="125" y2="165" id="linearGradient5" spreadMethod="reflect">
        <stop stop-opacity="1" stop-color="rgb(232,238,247)" offset="0%"/>
        <stop stop-opacity="1" stop-color="rgb(183,201,227)" offset="100%"/>
      </linearGradient>
      <linearGradient x1="294.6531" gradientUnits="userSpaceOnUse" x2="424.6531" y1="195" y2="235" id="linearGradient6" spreadMethod="reflect">
        <stop stop-opacity="1" stop-color="rgb(232,238,247)" offset="0%"/>
        <stop stop-opacity="1" stop-color="rgb(183,201,227)" offset="100%"/>
      </linearGradient>
      <linearGradient x1="283.6031" gradientUnits="userSpaceOnUse" x2="435.703" y1="265" y2="310.1644" id="linearGradient7" spreadMethod="reflect">
        <stop stop-opacity="1" stop-color="rgb(232,238,247)" offset="0%"/>
        <stop stop-opacity="1" stop-color="rgb(183,201,227)" offset="100%"/>
      </linearGradient>
      <linearGradient x1="336.1531" gradientUnits="userSpaceOnUse" x2="383.1531" y1="340.1644" y2="368.1644" id="linearGradient8" spreadMethod="reflect">
        <stop stop-opacity="1" stop-color="rgb(232,238,247)" offset="0%"/>
        <stop stop-opacity="1" stop-color="rgb(183,201,227)" offset="100%"/>
      </linearGradient>
      <linearGradient x1="319.6531" gradientUnits="userSpaceOnUse" x2="399.6531" y1="439" y2="479" id="linearGradient9" spreadMethod="reflect">
        <stop stop-opacity="1" stop-color="rgb(232,238,247)" offset="0%"/>
        <stop stop-opacity="1" stop-color="rgb(183,201,227)" offset="100%"/>
      </linearGradient>
      <linearGradient x1="316.4992" gradientUnits="userSpaceOnUse" x2="402.8069" y1="509" y2="549" id="linearGradient10" spreadMethod="reflect">
        <stop stop-opacity="1" stop-color="rgb(232,238,247)" offset="0%"/>
        <stop stop-opacity="1" stop-color="rgb(183,201,227)" offset="100%"/>
      </linearGradient>
      <linearGradient x1="279.1032" gradientUnits="userSpaceOnUse" x2="440.2029" y1="579" y2="633.4177" id="linearGradient11" spreadMethod="reflect">
        <stop stop-opacity="1" stop-color="rgb(232,238,247)" offset="0%"/>
        <stop stop-opacity="1" stop-color="rgb(183,201,227)" offset="100%"/>
      </linearGradient>
      <linearGradient x1="312.6899" gradientUnits="userSpaceOnUse" x2="406.6162" y1="681.2688" y2="721.2688" id="linearGradient12" spreadMethod="reflect">
        <stop stop-opacity="1" stop-color="rgb(232,238,247)" offset="0%"/>
        <stop stop-opacity="1" stop-color="rgb(183,201,227)" offset="100%"/>
      </linearGradient>
      <linearGradient x1="319.6531" gradientUnits="userSpaceOnUse" x2="399.6531" y1="751.2688" y2="791.2688" id="linearGradient13" spreadMethod="reflect">
        <stop stop-opacity="1" stop-color="rgb(232,238,247)" offset="0%"/>
        <stop stop-opacity="1" stop-color="rgb(183,201,227)" offset="100%"/>
      </linearGradient>
      <clipPath clipPathUnits="userSpaceOnUse" id="clipPath1">
        <path d="M0 0 L853 0 L853 696 L0 696 L0 0 Z"/>
      </clipPath>
      <clipPath clipPathUnits="userSpaceOnUse" id="clipPath2">
        <path d="M-503 -217 L845.623 -217 L845.623 883.4005 L-503 883.4005 L-503 -217 Z"/>
      </clipPath>
    </defs>
    <g fill="white" text-rendering="geometricPrecision" shape-rendering="geometricPrecision" transform="scale(0.6325,0.6325) translate(503,217)" stroke="white">
      <rect x="-503" width="1349" height="1102" y="-218" clip-path="url(#clipPath2)" stroke="none"/>
    </g>
    <g fill="rgb(245,245,245)" text-rendering="geometricPrecision" shape-rendering="geometricPrecision" transform="matrix(0.6325,0,0,0.6325,318.146,137.2518)" stroke="rgb(245,245,245)">
      <rect x="-91" y="-197.666" clip-path="url(#clipPath2)" width="608.3201" rx="4" ry="4" height="1066.7623" stroke="none"/>
      <rect x="-91" y="-197.666" clip-path="url(#clipPath2)" fill="rgb(235,235,235)" width="608.3201" height="21.666" stroke="none"/>
    </g>
    <g font-size="15px" stroke-linecap="butt" transform="matrix(0.6325,0,0,0.6325,318.146,137.2518)" text-rendering="geometricPrecision" font-family="sans-serif" shape-rendering="geometricPrecision" stroke-miterlimit="1.45">
      <text x="485.3201" xml:space="preserve" y="-181.1641" clip-path="url(#clipPath2)" stroke="none">首屏</text>
      <rect x="-91" y="-197.666" clip-path="url(#clipPath2)" fill="none" width="608.3201" stroke-dasharray="6,2" rx="4" ry="4" height="1066.7623"/>
      <rect fill="none" x="200" width="302.3201" height="945.0963" y="-91" clip-path="url(#clipPath2)"/>
      <text x="337.537" xml:space="preserve" font-size="12px" y="-73.3984" clip-path="url(#clipPath2)" stroke="none">View</text>
      <rect fill="none" x="56" width="144" height="945.0963" y="-91" clip-path="url(#clipPath2)"/>
      <text x="113.041" xml:space="preserve" font-size="12px" y="-73.3984" clip-path="url(#clipPath2)" stroke="none">Store</text>
    </g>
    <g fill="url(#linearGradient1)" text-rendering="geometricPrecision" shape-rendering="geometricPrecision" transform="matrix(0.6325,0,0,0.6325,318.146,137.2518)" stroke="url(#linearGradient1)">
      <rect x="-76" y="-161" clip-path="url(#clipPath2)" width="144" rx="20" ry="20" height="40" stroke="none"/>
    </g>
    <g text-rendering="geometricPrecision" stroke-miterlimit="1.45" shape-rendering="geometricPrecision" transform="matrix(0.6325,0,0,0.6325,318.146,137.2518)" stroke-linecap="butt">
      <rect x="-76" y="-161" clip-path="url(#clipPath2)" fill="none" width="144" rx="20" ry="20" height="40"/>
      <text x="-57.2148" xml:space="preserve" y="-136.4648" clip-path="url(#clipPath2)" font-family="sans-serif" stroke="none">用户构造Annotator</text>
    </g>
    <g fill="url(#linearGradient2)" text-rendering="geometricPrecision" shape-rendering="geometricPrecision" transform="matrix(0.6325,0,0,0.6325,318.146,137.2518)" stroke="url(#linearGradient2)">
      <path d="M-44 -91 L36 -91 L36 -51 L-44 -51 Z" stroke="none" clip-path="url(#clipPath2)"/>
    </g>
    <g text-rendering="geometricPrecision" stroke-miterlimit="1.45" shape-rendering="geometricPrecision" transform="matrix(0.6325,0,0,0.6325,318.146,137.2518)" stroke-linecap="butt">
      <path fill="none" d="M-44 -91 L36 -91 L36 -51 L-44 -51 Z" clip-path="url(#clipPath2)"/>
      <text x="-30.959" xml:space="preserve" y="-66.4648" clip-path="url(#clipPath2)" font-family="sans-serif" stroke="none">构造Store</text>
    </g>
    <g fill="url(#linearGradient3)" text-rendering="geometricPrecision" shape-rendering="geometricPrecision" transform="matrix(0.6325,0,0,0.6325,318.146,137.2518)" stroke="url(#linearGradient3)">
      <path d="M-44 -21 L36 -21 L36 19 L-44 19 Z" stroke="none" clip-path="url(#clipPath2)"/>
    </g>
    <g text-rendering="geometricPrecision" stroke-miterlimit="1.45" shape-rendering="geometricPrecision" transform="matrix(0.6325,0,0,0.6325,318.146,137.2518)" stroke-linecap="butt">
      <path fill="none" d="M-44 -21 L36 -21 L36 19 L-44 19 Z" clip-path="url(#clipPath2)"/>
      <text x="-29.623" xml:space="preserve" y="3.5352" clip-path="url(#clipPath2)" font-family="sans-serif" stroke="none">构造View</text>
    </g>
    <g fill="url(#linearGradient4)" text-rendering="geometricPrecision" shape-rendering="geometricPrecision" transform="matrix(0.6325,0,0,0.6325,318.146,137.2518)" stroke="url(#linearGradient4)">
      <path d="M66 49 L189 49 L189 89 L66 89 Z" stroke="none" clip-path="url(#clipPath2)"/>
    </g>
    <g text-rendering="geometricPrecision" stroke-miterlimit="1.45" shape-rendering="geometricPrecision" transform="matrix(0.6325,0,0,0.6325,318.146,137.2518)" stroke-linecap="butt">
      <path fill="none" d="M66 49 L189 49 L189 89 L66 89 Z" clip-path="url(#clipPath2)"/>
      <text x="76.541" xml:space="preserve" y="73.5352" clip-path="url(#clipPath2)" font-family="sans-serif" stroke="none">设置Store中的数据</text>
    </g>
    <g fill="url(#linearGradient5)" text-rendering="geometricPrecision" shape-rendering="geometricPrecision" transform="matrix(0.6325,0,0,0.6325,318.146,137.2518)" stroke="url(#linearGradient5)">
      <path d="M312.6531 125 L406.6531 125 L406.6531 165 L312.6531 165 Z" stroke="none" clip-path="url(#clipPath2)"/>
    </g>
    <g text-rendering="geometricPrecision" stroke-miterlimit="1.45" shape-rendering="geometricPrecision" transform="matrix(0.6325,0,0,0.6325,318.146,137.2518)" stroke-linecap="butt">
      <path fill="none" d="M312.6531 125 L406.6531 125 L406.6531 165 L312.6531 165 Z" clip-path="url(#clipPath2)"/>
      <text x="322.03" xml:space="preserve" y="149.5352" clip-path="url(#clipPath2)" font-family="sans-serif" stroke="none">构造LineView</text>
    </g>
    <g fill="url(#linearGradient6)" text-rendering="geometricPrecision" shape-rendering="geometricPrecision" transform="matrix(0.6325,0,0,0.6325,318.146,137.2518)" stroke="url(#linearGradient6)">
      <path d="M294.6531 195 L424.6531 195 L424.6531 235 L294.6531 235 Z" stroke="none" clip-path="url(#clipPath2)"/>
    </g>
    <g text-rendering="geometricPrecision" stroke-miterlimit="1.45" shape-rendering="geometricPrecision" transform="matrix(0.6325,0,0,0.6325,318.146,137.2518)" stroke-linecap="butt">
      <path fill="none" d="M294.6531 195 L424.6531 195 L424.6531 235 L294.6531 235 Z" clip-path="url(#clipPath2)"/>
      <text x="300.9421" xml:space="preserve" y="219.5352" clip-path="url(#clipPath2)" font-family="sans-serif" stroke="none">构造ConnectionView</text>
    </g>
    <g fill="url(#linearGradient7)" text-rendering="geometricPrecision" shape-rendering="geometricPrecision" transform="matrix(0.6325,0,0,0.6325,318.146,137.2518)" stroke="url(#linearGradient7)">
      <path d="M283.6031 265 L435.703 265 L435.703 310.1644 L283.6031 310.1644 Z" stroke="none" clip-path="url(#clipPath2)"/>
    </g>
    <g text-rendering="geometricPrecision" stroke-miterlimit="1.45" shape-rendering="geometricPrecision" transform="matrix(0.6325,0,0,0.6325,318.146,137.2518)" stroke-linecap="butt">
      <path fill="none" d="M283.6031 265 L435.703 265 L435.703 310.1644 L283.6031 310.1644 Z" clip-path="url(#clipPath2)"/>
      <text x="318.6638" xml:space="preserve" y="285.051" clip-path="url(#clipPath2)" font-family="sans-serif" stroke="none">构造LabelView</text>
      <text x="277.3259" xml:space="preserve" y="299.1838" clip-path="url(#clipPath2)" font-family="sans-serif" stroke="none">（并添加到对应TopContext）</text>
    </g>
    <g fill="url(#linearGradient8)" text-rendering="geometricPrecision" shape-rendering="geometricPrecision" transform="matrix(0.6325,0,0,0.6325,318.146,137.2518)" stroke="url(#linearGradient8)">
      <path d="M336.1531 340.1644 L383.1531 340.1644 L383.1531 368.1644 L336.1531 368.1644 Z" stroke="none" clip-path="url(#clipPath2)"/>
    </g>
    <g text-rendering="geometricPrecision" stroke-miterlimit="1.45" shape-rendering="geometricPrecision" transform="matrix(0.6325,0,0,0.6325,318.146,137.2518)" stroke-linecap="butt">
      <path fill="none" d="M336.1531 340.1644 L383.1531 340.1644 L383.1531 368.1644 L336.1531 368.1644 Z" clip-path="url(#clipPath2)"/>
      <text x="347.6531" xml:space="preserve" y="358.6996" clip-path="url(#clipPath2)" font-family="sans-serif" stroke="none">渲染</text>
    </g>
    <g text-rendering="geometricPrecision" stroke-miterlimit="1.45" shape-rendering="geometricPrecision" transform="matrix(0.6325,0,0,0.6325,318.146,137.2518)" stroke-linecap="butt">
      <path fill="none" d="M-4 -121.0049 L-4 -98.9727" clip-path="url(#clipPath2)"/>
      <path d="M-4 -90.9727 L1 -102.9727 L-4 -99.9727 L-9 -102.9727 Z" clip-path="url(#clipPath2)" stroke="none"/>
      <path fill="none" d="M-4 -51.0049 L-4 -28.9727" clip-path="url(#clipPath2)"/>
      <path d="M-4 -20.9727 L1 -32.9727 L-4 -29.9727 L-9 -32.9727 Z" clip-path="url(#clipPath2)" stroke="none"/>
      <path fill="none" d="M33.5944 19.0122 L82.8622 45.2384" clip-path="url(#clipPath2)"/>
      <path d="M89.924 48.9976 L81.6807 38.9452 L81.9795 44.7685 L76.9818 47.7725 Z" clip-path="url(#clipPath2)" stroke="none"/>
      <path fill="none" d="M188.5705 88.9927 L305.0609 127.1281" clip-path="url(#clipPath2)"/>
      <path d="M312.6638 129.6171 L302.815 121.1318 L304.1105 126.817 L299.7038 130.6355 Z" clip-path="url(#clipPath2)" stroke="none"/>
      <rect x="204.5649" y="99.3576" clip-path="url(#clipPath2)" fill="white" width="86.7227" height="18.1328" stroke="none"/>
      <text x="206.5649" xml:space="preserve" y="112.9591" clip-path="url(#clipPath2)" font-family="sans-serif" stroke="none">推送Ready事件</text>
      <path fill="none" d="M359.6531 164.9951 L359.6531 187.0273" clip-path="url(#clipPath2)"/>
      <path d="M359.6531 195.0273 L364.6531 183.0273 L359.6531 186.0273 L354.6531 183.0273 Z" clip-path="url(#clipPath2)" stroke="none"/>
      <path fill="none" d="M359.6531 235.0239 L359.6531 257.0242" clip-path="url(#clipPath2)"/>
      <path d="M359.6531 265.0242 L364.6531 253.0242 L359.6531 256.0242 L354.6531 253.0242 Z" clip-path="url(#clipPath2)" stroke="none"/>
      <path fill="none" d="M359.6531 310.1772 L359.6531 332.2037" clip-path="url(#clipPath2)"/>
      <path d="M359.6531 340.2037 L364.6531 328.2037 L359.6531 331.2037 L354.6531 328.2037 Z" clip-path="url(#clipPath2)" stroke="none"/>
    </g>
    <g fill="rgb(225,225,225)" text-rendering="geometricPrecision" shape-rendering="geometricPrecision" transform="matrix(0.6325,0,0,0.6325,318.146,137.2518)" stroke="rgb(225,225,225)">
      <rect x="264.1032" y="402.334" clip-path="url(#clipPath2)" width="198.3806" rx="4" ry="4" height="404.8449" stroke="none"/>
      <rect x="264.1032" y="402.334" clip-path="url(#clipPath2)" fill="rgb(235,235,235)" width="198.3806" height="21.666" stroke="none"/>
    </g>
    <g font-size="15px" stroke-linecap="butt" transform="matrix(0.6325,0,0,0.6325,318.146,137.2518)" text-rendering="geometricPrecision" font-family="sans-serif" shape-rendering="geometricPrecision" stroke-miterlimit="1.45">
      <text x="370.4838" xml:space="preserve" y="418.8359" clip-path="url(#clipPath2)" stroke="none">渲染所有Line</text>
      <rect x="264.1032" y="402.334" clip-path="url(#clipPath2)" fill="none" width="198.3806" stroke-dasharray="6,2" rx="4" ry="4" height="404.8449"/>
    </g>
    <g fill="url(#linearGradient9)" text-rendering="geometricPrecision" shape-rendering="geometricPrecision" transform="matrix(0.6325,0,0,0.6325,318.146,137.2518)" stroke="url(#linearGradient9)">
      <path d="M319.6531 439 L399.6531 439 L399.6531 479 L319.6531 479 Z" stroke="none" clip-path="url(#clipPath2)"/>
    </g>
    <g text-rendering="geometricPrecision" stroke-miterlimit="1.45" shape-rendering="geometricPrecision" transform="matrix(0.6325,0,0,0.6325,318.146,137.2518)" stroke-linecap="butt">
      <path fill="none" d="M319.6531 439 L399.6531 439 L399.6531 479 L319.6531 479 Z" clip-path="url(#clipPath2)"/>
      <text x="323.6531" xml:space="preserve" y="463.5352" clip-path="url(#clipPath2)" font-family="sans-serif" stroke="none">渲染Line自身</text>
    </g>
    <g fill="url(#linearGradient10)" text-rendering="geometricPrecision" shape-rendering="geometricPrecision" transform="matrix(0.6325,0,0,0.6325,318.146,137.2518)" stroke="url(#linearGradient10)">
      <path d="M316.4992 509 L402.8069 509 L402.8069 549 L316.4992 549 Z" stroke="none" clip-path="url(#clipPath2)"/>
    </g>
    <g text-rendering="geometricPrecision" stroke-miterlimit="1.45" shape-rendering="geometricPrecision" transform="matrix(0.6325,0,0,0.6325,318.146,137.2518)" stroke-linecap="butt">
      <path fill="none" d="M316.4992 509 L402.8069 509 L402.8069 549 L316.4992 549 Z" clip-path="url(#clipPath2)"/>
      <text x="320.2869" xml:space="preserve" y="533.5352" clip-path="url(#clipPath2)" font-family="sans-serif" stroke="none">渲染每个Label</text>
    </g>
    <g fill="url(#linearGradient11)" text-rendering="geometricPrecision" shape-rendering="geometricPrecision" transform="matrix(0.6325,0,0,0.6325,318.146,137.2518)" stroke="url(#linearGradient11)">
      <path d="M359.6531 579 L440.2029 606.2089 L359.6531 633.4177 L279.1032 606.2089 Z" stroke="none" clip-path="url(#clipPath2)"/>
    </g>
    <g text-rendering="geometricPrecision" stroke-miterlimit="1.45" shape-rendering="geometricPrecision" transform="matrix(0.6325,0,0,0.6325,318.146,137.2518)" stroke-linecap="butt">
      <path fill="none" d="M359.6531 579 L440.2029 606.2089 L359.6531 633.4177 L279.1032 606.2089 Z" clip-path="url(#clipPath2)"/>
      <text x="296.5652" xml:space="preserve" y="610.744" clip-path="url(#clipPath2)" font-family="sans-serif" stroke="none">有Connection准备好了</text>
    </g>
    <g fill="url(#linearGradient12)" text-rendering="geometricPrecision" shape-rendering="geometricPrecision" transform="matrix(0.6325,0,0,0.6325,318.146,137.2518)" stroke="url(#linearGradient12)">
      <path d="M312.6899 681.2688 L406.6162 681.2688 L406.6162 721.2688 L312.6899 721.2688 Z" stroke="none" clip-path="url(#clipPath2)"/>
    </g>
    <g text-rendering="geometricPrecision" stroke-miterlimit="1.45" shape-rendering="geometricPrecision" transform="matrix(0.6325,0,0,0.6325,318.146,137.2518)" stroke-linecap="butt">
      <path fill="none" d="M312.6899 681.2688 L406.6162 681.2688 L406.6162 721.2688 L312.6899 721.2688 Z" clip-path="url(#clipPath2)"/>
      <text x="317.6531" xml:space="preserve" y="705.804" clip-path="url(#clipPath2)" font-family="sans-serif" stroke="none">绘制，重新布局</text>
    </g>
    <g fill="url(#linearGradient13)" text-rendering="geometricPrecision" shape-rendering="geometricPrecision" transform="matrix(0.6325,0,0,0.6325,318.146,137.2518)" stroke="url(#linearGradient13)">
      <path d="M319.6531 751.2688 L399.6531 751.2688 L399.6531 791.2688 L319.6531 791.2688 Z" stroke="none" clip-path="url(#clipPath2)"/>
    </g>
    <g text-rendering="geometricPrecision" stroke-miterlimit="1.45" shape-rendering="geometricPrecision" transform="matrix(0.6325,0,0,0.6325,318.146,137.2518)" stroke-linecap="butt">
      <path fill="none" d="M319.6531 751.2688 L399.6531 751.2688 L399.6531 791.2688 L319.6531 791.2688 Z" clip-path="url(#clipPath2)"/>
      <text x="323.6531" xml:space="preserve" y="775.804" clip-path="url(#clipPath2)" font-family="sans-serif" stroke="none">布局Line自身</text>
    </g>
    <g text-rendering="geometricPrecision" stroke-miterlimit="1.45" shape-rendering="geometricPrecision" transform="matrix(0.6325,0,0,0.6325,318.146,137.2518)" stroke-linecap="butt">
      <path fill="none" d="M359.8561 368.144 L360.2363 394.3138" clip-path="url(#clipPath2)"/>
      <path d="M360.3525 402.313 L365.1777 390.2416 L360.2218 393.3139 L355.1787 390.3869 Z" clip-path="url(#clipPath2)" stroke="none"/>
      <path fill="none" d="M359.6531 478.9951 L359.6531 501.0273" clip-path="url(#clipPath2)"/>
      <path d="M359.6531 509.0273 L364.6531 497.0273 L359.6531 500.0273 L354.6531 497.0273 Z" clip-path="url(#clipPath2)" stroke="none"/>
      <path fill="none" d="M359.6531 549.0185 L359.6531 570.982" clip-path="url(#clipPath2)"/>
      <path d="M359.6531 578.982 L364.6531 566.982 L359.6531 569.982 L354.6531 566.982 Z" clip-path="url(#clipPath2)" stroke="none"/>
      <path fill="none" d="M359.6531 633.455 L359.6531 673.2359" clip-path="url(#clipPath2)"/>
      <path d="M359.6531 681.2359 L364.6531 669.2359 L359.6531 672.2359 L354.6531 669.2359 Z" clip-path="url(#clipPath2)" stroke="none"/>
      <rect x="353.9148" y="648.2768" clip-path="url(#clipPath2)" fill="white" width="11.4766" height="18.1328" stroke="none"/>
      <text x="355.9148" xml:space="preserve" y="661.8784" clip-path="url(#clipPath2)" font-family="sans-serif" stroke="none">Y</text>
      <path fill="none" d="M359.6531 721.2639 L359.6531 743.2961" clip-path="url(#clipPath2)"/>
      <path d="M359.6531 751.2961 L364.6531 739.2961 L359.6531 742.2961 L354.6531 739.2961 Z" clip-path="url(#clipPath2)" stroke="none"/>
      <path fill="none" d="M440.2328 606.2089 L445.6495 606.2089 L445.6495 771.2688 L407.67 771.2688" clip-path="url(#clipPath2)"/>
      <path d="M399.67 771.2688 L411.67 776.2688 L408.67 771.2688 L411.67 766.2688 Z" clip-path="url(#clipPath2)" stroke="none"/>
      <rect x="439.2169" y="679.6724" clip-path="url(#clipPath2)" fill="white" width="12.8652" height="18.1328" stroke="none"/>
      <text x="441.2169" xml:space="preserve" y="693.274" clip-path="url(#clipPath2)" font-family="sans-serif" stroke="none">N</text>
    </g>
  </g>
</svg>
